<?xml version="1.0" standalone="no"?>
<!DOCTYPE svg PUBLIC "-//W3C//DTD SVG 20010904//EN" "http://www.w3.org/TR/2001/REC-SVG-20010904/DTD/svg10.dtd">
<svg xmlns="http://www.w3.org/2000/svg" version="1.0" width="1280.000000pt" height="913.000000pt" viewBox="0 0 1280.000000 913.000000" preserveAspectRatio="xMidYMid meet">
<metadata>
Created by potrace 1.16, written by Peter Selinger 2001-2019
<meta name="Producer" content="Online-Convert"/></metadata>
<g transform="translate(0.000000,913.000000) scale(0.100000,-0.100000)" fill="#000000" stroke="none">
<path d="M1157 8648 c-18 -6 -36 -26 -52 -59 -29 -55 -29 -60 -13 -114 l12 -40 7 50 c11 67 34 85 111 85 49 0 63 -4 83 -25 31 -30 35 -61 6 -45 -28 15 -61 12 -67 -5 -9 -21 5 -72 15 -57 6 10 16 9 44 -3 20 -8 37 -17 37 -19 0 -13 -23 -66 -29 -66 -12 0 -46 28 -47 39 -1 6 -2 16 -3 22 0 7 -8 8 -18 4 -10 -4 -24 -8 -30 -8 -7 0 -13 -4 -13 -9 0 -4 6 -8 13 -8 8 0 7 -4 -3 -10 -12 -8 -10 -10 10 -10 19 0 22 -3 11 -9 -12 -8 -12 -12 -2 -24 10 -13 8 -16 -9 -22 -28 -9 -14 -26 16 -19 33 8 31 -9 -3 -22 -46 -17 -90 0 -108 43 -19 45 -31 37 -16 -10 14 -41 46 -73 82 -82 23 -6 28 -13 33 -56 5 -37 14 -56 38 -78 18 -17 30 -32 27 -35 -9 -9 -105 19 -134 38 -15 10 -30 27 -33 38 -4 16 -10 18 -36 12 -17 -3 -33 -10 -36 -14 -3 -4 -34 -17 -69 -29 -95 -33 -114 -45 -139 -90 -32 -56 -62 -148 -62 -188 0 -19 17 -75 38 -126 22 -51 48 -114 59 -142 15 -39 24 -49 39 -47 14 3 16 1 8 -8 -14 -14 -3 -52 51 -189 46 -114 84 -157 149 -166 78 -12 106 5 214 128 54 62 128 150 165 197 37 47 83 103 103 125 69 75 133 166 128 180 -3 8 -17 21 -31 30 -13 9 -33 35 -44 58 -10 23 -19 36 -19 29 0 -7 5 -23 11 -35 10 -21 10 -21 -5 -3 -9 11 -16 25 -16 30 0 6 -9 33 -19 61 -30 76 -34 89 -33 96 2 10 -95 55 -148 70 -25 7 -62 21 -82 31 -36 17 -38 21 -38 63 0 32 8 58 27 88 24 37 27 54 30 145 l4 104 -36 44 c-54 65 -113 86 -178 62z m73 -614 c0 -4 -8 -13 -17 -20 -27 -19 -14 -23 47 -14 30 4 43 8 28 9 -27 1 -41 21 -15 21 29 0 57 -13 57 -26 0 -8 9 -14 21 -14 15 0 20 -5 17 -22 -3 -19 -11 -22 -68 -25 -83 -6 -91 -13 -15 -13 76 0 61 -15 -29 -29 -66 -10 -72 -13 -122 -66 -36 -38 -60 -55 -77 -55 -14 0 -33 -7 -41 -16 -18 -17 -21 -28 -7 -19 5 3 12 1 16 -5 3 -5 2 -10 -2 -10 -5 0 -16 -12 -25 -27 -19 -33 -97 -113 -109 -113 -16 0 -39 58 -31 78 4 10 42 49 84 86 74 65 127 133 163 207 12 24 31 41 63 56 52 23 62 26 62 17z"/>
<path d="M11085 8412 c-27 -2 -55 -8 -62 -14 -8 -6 -13 -35 -13 -74 l0 -64 75 0 75 0 0 74 c0 83 0 83 -75 78z"/>
<path d="M11808 8412 l-38 -3 0 -75 0 -74 75 0 75 0 0 64 c0 82 -18 96 -112 88z"/>
<path d="M11390 8310 c0 -5 -18 -10 -41 -10 -39 0 -79 -23 -65 -38 4 -3 11 0 17 8 8 13 10 13 19 0 9 -13 11 -13 19 0 6 8 13 11 17 7 14 -13 12 -35 -2 -41 -20 -8 -18 -62 2 -70 9 -4 14 -13 10 -21 -3 -9 0 -15 9 -15 10 0 15 10 15 30 0 17 -4 30 -10 30 -5 0 -10 5 -10 10 0 6 9 10 20 10 16 0 20 -7 20 -30 0 -28 3 -30 35 -30 22 0 35 -5 35 -13 0 -7 9 -19 20 -27 25 -18 25 -34 3 -60 -18 -21 -18 -21 -23 10 -5 33 -24 42 -25 12 0 -26 -28 -62 -47 -62 -10 0 -18 -4 -18 -10 0 -5 11 -10 25 -10 14 0 39 -12 55 -27 25 -22 28 -29 17 -41 -9 -12 -9 -16 1 -19 6 -3 12 -13 12 -24 0 -10 5 -19 10 -19 6 0 10 -7 10 -15 0 -8 4 -15 9 -15 5 0 11 7 15 15 7 20 26 19 26 -1 0 -9 5 -12 12 -8 7 5 -2 18 -25 40 -42 37 -45 44 -17 44 11 0 20 7 20 15 0 8 -4 15 -10 15 -6 0 -10 26 -10 59 0 33 5 63 10 66 15 10 12 25 -6 25 -18 0 -44 23 -44 39 0 6 5 11 10 11 6 0 10 -7 10 -15 0 -8 9 -15 20 -15 24 0 26 16 4 37 -13 13 -20 14 -35 5 -25 -16 -26 -16 -32 10 -5 18 -8 19 -22 8 -8 -7 -19 -10 -22 -6 -4 4 -1 11 7 16 12 7 11 12 -4 29 -10 11 -23 19 -30 18 -6 -1 -12 13 -14 31 -2 23 1 32 12 32 8 0 18 5 21 10 3 6 -3 10 -14 10 -12 0 -21 -4 -21 -10z"/>
<path d="M11747 8233 c-4 -3 -7 -13 -7 -20 0 -18 -29 -48 -38 -39 -3 4 0 11 8 16 8 5 11 12 8 16 -10 9 -38 -21 -38 -40 0 -9 8 -16 20 -16 13 0 20 -7 20 -19 0 -16 6 -18 45 -13 41 4 45 3 45 -17 0 -11 -4 -21 -10 -21 -5 0 -10 -9 -10 -20 0 -11 -4 -20 -10 -20 -5 0 -10 11 -10 24 0 32 -20 44 -27 17 -6 -24 -23 -28 -23 -5 0 8 -6 22 -14 30 -17 16 -46 19 -46 4 0 -5 -12 -10 -27 -10 -21 0 -24 -3 -15 -12 19 -19 14 -28 -18 -28 -34 0 -41 -19 -10 -27 11 -3 20 -9 20 -14 0 -5 -9 -9 -20 -9 -11 0 -20 -4 -20 -8 0 -14 23 -32 42 -32 10 0 18 -3 18 -7 -1 -16 -28 -43 -44 -43 -22 0 -20 -13 4 -30 15 -11 20 -26 20 -57 0 -24 -4 -43 -10 -43 -5 0 -10 -4 -10 -10 0 -5 9 -10 20 -10 27 0 29 -50 3 -50 -22 -1 -55 -25 -46 -33 3 -4 -3 -7 -15 -7 -28 0 -29 -16 -2 -23 11 -3 20 -12 20 -20 0 -20 -17 -31 -25 -17 -9 14 -34 12 -51 -4 -16 -17 -18 -42 -4 -51 6 -3 10 -19 10 -36 0 -16 5 -29 10 -29 6 0 10 21 10 46 0 41 2 45 23 42 14 -2 23 -11 25 -25 3 -20 9 -23 42 -21 22 1 41 7 44 15 7 18 26 16 26 -3 0 -8 5 -12 11 -8 8 4 8 9 0 17 -6 6 -11 15 -11 19 0 13 38 9 43 -4 4 -10 7 -10 18 0 16 14 49 16 49 2 0 -5 -9 -10 -20 -10 -11 0 -20 -4 -20 -9 0 -16 27 -31 44 -25 9 3 16 1 16 -5 0 -6 -4 -11 -10 -11 -5 0 -10 -4 -10 -10 0 -5 9 -10 20 -10 11 0 20 5 20 10 0 6 7 10 15 10 8 0 15 -4 15 -10 0 -5 5 -10 10 -10 16 0 12 28 -7 50 -10 11 -25 20 -35 20 -10 0 -18 5 -18 10 0 6 11 10 25 10 14 0 25 -4 25 -10 0 -15 29 -12 46 4 16 17 19 46 4 46 -5 0 -10 -9 -10 -20 0 -13 -7 -20 -20 -20 -15 0 -20 7 -20 30 0 16 -6 33 -14 37 -8 4 -15 17 -17 27 -6 29 -35 43 -59 28 -11 -6 -27 -12 -35 -12 -8 0 -15 -4 -15 -10 0 -5 -9 -10 -20 -10 -15 0 -20 -7 -20 -25 0 -14 5 -25 10 -25 6 0 10 -4 10 -10 0 -15 -40 -12 -41 3 -1 6 -2 21 -3 32 -1 23 -35 33 -47 14 -4 -7 -11 -10 -15 -7 -8 9 21 38 38 38 8 0 20 6 26 12 10 10 15 10 22 -1 7 -12 11 -12 24 2 9 8 16 22 16 29 -1 9 -5 7 -14 -4 -16 -22 -26 -23 -26 -3 0 8 5 15 12 15 6 0 3 9 -7 20 -13 14 -22 17 -29 10 -17 -17 -26 -11 -26 20 0 29 2 30 45 30 25 0 45 -4 45 -10 0 -5 -9 -10 -20 -10 -11 0 -20 -3 -20 -6 0 -11 29 -34 44 -34 19 0 21 16 4 23 -10 4 -9 8 2 16 13 10 13 12 0 21 -13 8 -11 13 11 32 20 18 27 35 31 76 4 39 2 52 -8 52 -8 0 -14 5 -14 10 0 18 35 11 50 -10 8 -11 22 -20 32 -20 21 0 23 11 6 28 -9 9 -6 12 15 12 22 0 27 5 27 25 0 14 5 25 11 25 5 0 7 5 4 10 -3 6 -19 10 -36 10 -16 0 -29 5 -29 10 0 6 9 10 20 10 11 0 20 5 20 10 0 6 -12 10 -28 10 -17 0 -32 8 -40 21 -12 18 -10 23 9 40 12 10 19 22 14 27 -4 4 -10 1 -12 -5 -3 -7 -13 -13 -24 -13 -20 0 -26 15 -9 25 6 4 8 11 5 16 -7 11 -29 12 -38 2z"/>
<path d="M11283 8216 c-24 -11 -31 -26 -13 -26 6 0 10 -9 10 -19 0 -11 5 -23 11 -26 17 -11 -21 -45 -50 -45 -16 0 -33 10 -45 25 -18 24 -46 34 -46 16 0 -21 13 -41 27 -41 8 0 12 -4 9 -8 -2 -4 0 -14 5 -22 8 -13 10 -13 18 0 6 8 13 11 18 7 4 -5 1 -12 -7 -17 -12 -7 -12 -12 -2 -22 14 -14 16 -48 3 -48 -5 0 -11 6 -14 13 -3 9 -9 7 -23 -5 -17 -17 -17 -18 4 -41 22 -24 30 -77 12 -77 -5 0 -10 -4 -10 -10 0 -5 9 -10 20 -10 11 0 20 -7 20 -15 0 -8 -9 -15 -20 -15 -11 0 -20 -4 -20 -10 0 -15 -19 -12 -37 5 -12 13 -13 18 -2 31 10 13 10 17 -2 26 -11 7 -11 11 -1 15 6 2 12 9 12 14 0 15 -30 10 -47 -7 -14 -13 -14 -17 -2 -24 7 -5 10 -12 6 -16 -3 -4 -13 -1 -22 6 -8 7 -16 9 -16 4 -6 -44 -5 -76 3 -80 5 -3 12 3 15 15 5 21 43 30 43 11 0 -5 -4 -10 -10 -10 -5 0 -10 -14 -10 -30 0 -27 -3 -30 -24 -24 -20 5 -24 2 -22 -13 2 -10 13 -19 24 -21 14 -2 22 -11 22 -23 0 -14 7 -19 30 -19 17 0 30 5 30 10 0 6 -9 10 -20 10 -22 0 -27 16 -7 23 9 3 9 7 0 18 -13 16 4 49 26 49 6 0 11 3 11 8 0 4 14 13 30 20 28 13 42 42 20 42 -5 0 -10 5 -10 10 0 6 9 10 20 10 11 0 20 5 20 10 0 6 -9 10 -21 10 -15 0 -20 5 -17 23 2 14 10 22 23 22 13 0 21 -8 23 -22 2 -13 8 -23 13 -23 14 0 11 -68 -3 -73 -7 -2 -9 -8 -5 -13 4 -5 12 -2 17 6 5 8 13 11 17 6 4 -5 2 -11 -4 -13 -22 -8 -15 -43 7 -43 11 0 20 -4 20 -10 0 -5 9 -10 20 -10 16 0 19 5 14 30 -6 26 -4 30 15 30 23 0 29 -16 9 -22 -9 -3 -8 -10 5 -22 10 -10 21 -15 25 -11 4 4 1 10 -5 12 -25 9 -13 23 20 23 21 0 36 7 45 20 7 12 8 20 2 20 -5 0 -10 13 -10 29 0 41 -13 45 -44 15 -26 -27 -26 -44 0 -44 8 0 14 -4 14 -10 0 -15 -29 -12 -46 4 -16 16 -19 76 -4 76 6 0 10 9 10 20 0 28 -12 25 -49 -11 -18 -17 -36 -27 -39 -23 -4 3 -1 9 6 11 6 3 12 15 12 28 0 13 6 25 13 28 7 2 8 8 3 13 -5 5 -11 4 -13 -3 -5 -15 -43 -17 -43 -3 0 6 -12 10 -27 10 l-28 0 28 24 c15 13 27 31 27 40 0 18 -15 22 -25 6 -4 -6 -11 -8 -16 -4 -6 4 -2 14 11 26 21 20 21 20 40 -2 17 -19 22 -21 35 -10 13 11 18 10 30 -6 10 -14 17 -16 25 -8 9 9 3 16 -22 28 -20 11 -34 13 -36 6 -8 -22 -22 -9 -22 20 0 17 5 30 10 30 6 0 10 11 10 25 0 18 -5 25 -20 25 -11 0 -20 5 -20 10 0 6 5 10 10 10 6 0 10 9 10 20 0 22 -4 23 -37 6z"/>
<path d="M11066 8053 c7 -26 6 -27 -10 -14 -15 12 -19 12 -34 -3 -16 -16 -16 -17 6 -22 23 -7 29 -19 12 -29 -14 -9 -12 -62 3 -68 7 -2 8 -8 3 -13 -5 -5 -11 -4 -13 4 -7 20 -23 14 -23 -9 0 -17 5 -20 33 -17 19 2 31 8 30 16 -4 19 35 52 62 52 26 0 34 15 13 23 -8 3 -2 14 17 31 23 20 26 26 13 26 -10 0 -18 7 -18 15 0 8 -4 15 -10 15 -5 0 -10 -4 -10 -9 0 -6 5 -13 10 -16 17 -10 11 -25 -10 -25 -13 0 -20 -7 -20 -20 0 -11 -4 -20 -10 -20 -5 0 -10 25 -10 55 0 49 -2 55 -20 55 -17 0 -19 -4 -14 -27z"/>
<path d="M11010 7596 c0 -83 12 -96 91 -96 l59 0 0 80 0 80 -75 0 -75 0 0 -64z"/>
<path d="M6431 6293 c-63 -33 -76 -62 -79 -178 l-4 -104 -31 -3 c-32 -3 -33 -6 -28 -93 1 -10 11 -15 31 -15 l30 0 0 -135 0 -135 55 0 54 0 3 133 3 132 48 3 47 3 0 55 0 54 -51 0 -52 0 5 84 c5 102 16 120 70 113 36 -5 40 -3 58 33 17 34 18 39 4 51 -26 22 -124 23 -163 2z"/>
<path d="M4520 6253 c-61 -22 -131 -96 -158 -168 -32 -82 -31 -211 2 -281 51 -110 137 -171 255 -181 70 -6 157 13 195 41 17 14 17 16 1 61 -10 25 -21 48 -25 50 -4 2 -31 -5 -61 -16 -132 -51 -249 19 -266 158 -10 90 35 181 108 219 41 21 118 18 157 -6 18 -11 36 -20 41 -20 5 0 18 23 30 51 26 60 21 70 -46 93 -59 20 -174 19 -233 -1z"/>
<path d="M5780 6090 l0 -80 -31 0 c-30 0 -30 -1 -27 -47 3 -44 5 -48 31 -51 l27 -3 0 -140 0 -139 60 0 60 0 0 140 0 140 40 0 c40 0 42 2 43 45 1 52 -2 55 -43 55 l-40 0 0 80 0 80 -60 0 -60 0 0 -80z"/>
<path d="M7790 6090 c0 -79 0 -80 -26 -80 -24 0 -25 -2 -22 -47 3 -41 6 -48 26 -51 22 -3 22 -6 22 -143 l0 -139 60 0 60 0 0 139 0 140 43 3 42 3 3 48 3 47 -45 0 -46 0 0 80 0 80 -60 0 -60 0 0 -80z"/>
<path d="M7345 6015 c-50 -17 -112 -86 -121 -131 -3 -19 -4 -64 -2 -99 4 -72 23 -105 78 -142 44 -30 131 -32 178 -3 39 24 42 24 42 5 0 -12 13 -15 60 -15 l60 0 -2 188 -3 187 -52 3 c-43 2 -53 0 -53 -12 0 -21 -15 -20 -48 3 -37 27 -90 33 -137 16z m152 -117 c33 -31 33 -125 1 -155 -32 -29 -67 -35 -103 -17 -39 18 -59 53 -58 100 3 91 96 133 160 72z"/>
<path d="M5015 5997 c-55 -31 -97 -94 -102 -154 -13 -136 64 -222 200 -223 54 0 127 20 127 36 0 3 -10 24 -22 45 -21 38 -41 49 -53 29 -9 -15 -68 -12 -91 4 -10 8 -17 16 -14 19 3 2 59 22 125 44 133 45 141 53 109 115 -40 79 -87 108 -176 108 -47 0 -73 -6 -103 -23z"/>
<path d="M5595 6001 c-16 -10 -41 -31 -55 -46 l-25 -27 -5 39 -5 38 -52 3 -53 3 0 -190 0 -191 60 0 60 0 0 94 c0 113 19 152 88 176 l42 14 0 53 c0 59 -7 64 -55 34z"/>
<path d="M6923 5996 c-70 -33 -103 -89 -103 -174 0 -33 5 -73 11 -89 14 -38 57 -83 96 -99 61 -26 195 -11 217 24 4 6 -6 25 -21 42 -24 27 -32 29 -58 22 -45 -13 -93 4 -115 41 -25 41 -25 73 0 114 24 39 58 50 113 33 40 -12 42 -11 64 16 31 39 29 49 -13 69 -61 29 -132 30 -191 1z"/>
<path d="M8154 5988 c-87 -59 -115 -155 -76 -258 22 -56 81 -100 145 -107 56 -7 128 3 152 21 17 12 17 15 -6 55 -16 29 -28 40 -39 35 -52 -21 -120 -13 -120 15 0 4 55 25 121 46 67 22 124 46 126 52 13 35 -33 114 -86 150 -27 18 -48 23 -101 23 -60 0 -73 -4 -116 -32z"/>
<path d="M6074 5997 c-2 -7 -3 -91 -2 -187 l3 -175 58 -3 57 -3 0 191 0 190 -55 0 c-36 0 -57 -5 -61 -13z"/>
<path d="M6610 5820 l0 -190 55 0 55 0 0 190 0 190 -55 0 -55 0 0 -190z"/>
<path d="M12708 5552 c-48 -70 -120 -174 -161 -232 -40 -58 -167 -240 -282 -405 -402 -579 -718 -1033 -926 -1330 -115 -165 -286 -410 -380 -545 -93 -135 -258 -371 -365 -525 -108 -154 -203 -291 -212 -305 -10 -14 -91 -131 -181 -260 -90 -129 -197 -282 -237 -340 -40 -58 -109 -157 -153 -220 -44 -63 -97 -140 -119 -170 -21 -30 -119 -172 -219 -315 -99 -143 -202 -291 -228 -329 -47 -66 -48 -69 -29 -83 10 -8 143 -100 294 -205 151 -105 305 -213 342 -240 l68 -48 1067 0 1067 0 -95 66 c-52 36 -100 69 -108 74 -11 6 28 55 164 206 98 110 188 210 200 222 l22 24 164 -147 c90 -81 206 -186 258 -233 51 -48 104 -95 117 -105 l24 -18 0 793 0 793 -322 290 c-177 160 -328 296 -336 304 -17 17 0 34 -313 -314 -436 -485 -590 -655 -595 -655 -3 0 19 35 49 78 29 42 146 210 259 372 112 162 341 491 509 730 167 240 363 520 434 623 72 103 172 247 222 320 l93 132 0 1063 c0 584 -1 1062 -2 1062 -2 0 -42 -58 -90 -128z"/>
<path d="M4720 4304 l0 -226 43 3 c23 2 57 -1 75 -5 71 -17 124 34 130 124 8 106 -53 165 -138 136 l-40 -14 0 104 0 104 -35 0 -35 0 0 -226z"/>
<path d="M5530 4305 l0 -225 35 0 35 0 0 225 0 225 -35 0 -35 0 0 -225z"/>
<path d="M5910 4305 l0 -225 35 0 35 0 0 225 0 225 -35 0 -35 0 0 -225z"/>
<path d="M7190 4305 l0 -225 35 0 35 0 0 70 c0 82 14 120 46 120 29 0 34 -16 34 -111 l0 -80 33 3 32 3 0 106 c0 91 -3 110 -19 128 -23 26 -81 28 -108 4 -17 -15 -18 -12 -18 95 l0 112 -35 0 -35 0 0 -225z"/>
<path d="M8560 4426 l0 -104 -37 13 c-49 17 -89 2 -120 -45 -64 -93 11 -245 104 -212 17 5 51 8 76 5 l47 -6 0 227 0 226 -35 0 -35 0 0 -104z"/>
<path d="M9140 4305 l0 -225 35 0 35 0 0 225 0 225 -35 0 -35 0 0 -225z"/>
<path d="M9327 4519 c-28 -16 -47 -71 -47 -134 0 -42 -3 -55 -15 -55 -10 0 -15 -11 -15 -35 0 -24 5 -35 15 -35 12 0 15 -17 15 -90 l0 -90 35 0 35 0 0 90 0 90 35 0 c33 0 35 2 35 35 0 33 -2 35 -35 35 l-35 0 0 49 c0 67 7 81 40 81 22 0 29 6 34 27 5 17 3 29 -6 34 -18 12 -69 10 -91 -2z"/>
<path d="M4489 4407 c-21 -56 -55 -153 -78 -215 l-40 -113 36 3 c32 3 38 8 48 38 11 34 13 35 72 38 l60 3 12 -41 c11 -38 14 -40 51 -40 22 0 40 3 40 6 0 6 -93 269 -130 367 -12 31 -24 57 -28 57 -4 0 -23 -46 -43 -103z"/>
<path d="M6470 4298 l0 -218 35 0 34 0 3 88 3 87 50 -82 c28 -45 53 -83 57 -83 3 0 28 38 54 85 26 47 51 85 56 85 4 0 8 -40 8 -90 l0 -90 35 0 35 0 0 215 c0 118 -3 215 -7 215 -5 -1 -45 -62 -89 -138 -45 -75 -86 -138 -91 -139 -5 -2 -41 52 -80 119 -112 191 -102 197 -103 -54z"/>
<path d="M2950 4290 l0 -210 35 0 35 0 0 65 c0 61 1 65 23 65 18 0 31 -15 60 -65 36 -63 39 -65 78 -65 22 0 39 3 37 8 -2 4 -18 36 -37 71 l-33 64 23 40 c30 54 31 146 2 185 -30 41 -61 52 -145 52 l-78 0 0 -210z"/>
<path d="M8840 4290 l0 -210 125 0 125 0 0 40 0 40 -90 0 -90 0 0 45 0 45 75 0 75 0 0 40 0 40 -75 0 -75 0 0 45 0 45 85 0 85 0 0 40 0 40 -120 0 -120 0 0 -210z"/>
<path d="M3520 4385 c0 -42 -3 -55 -15 -55 -10 0 -15 -10 -15 -30 0 -20 5 -30 15 -30 12 0 15 -17 15 -95 l0 -95 35 0 35 0 0 95 c0 95 0 95 25 95 21 0 25 5 25 30 0 25 -4 30 -25 30 -24 0 -25 3 -25 55 l0 55 -35 0 -35 0 0 -55z"/>
<path d="M3326 4339 c-126 -34 -126 -241 1 -265 34 -7 93 11 93 28 0 29 -22 47 -55 46 -32 -1 -54 7 -44 16 2 1 33 14 69 27 80 30 89 56 41 112 -34 38 -61 47 -105 36z"/>
<path d="M3731 4334 c-82 -35 -95 -198 -18 -244 39 -24 59 -25 97 -5 17 9 30 11 30 5 0 -5 16 -10 35 -10 l35 0 0 126 0 127 -45 -5 c-25 -3 -47 -2 -50 2 -9 15 -54 17 -84 4z"/>
<path d="M4030 4339 c-56 -23 -82 -65 -82 -135 0 -53 24 -99 62 -119 37 -19 53 -19 90 0 28 15 30 14 30 -4 0 -11 -7 -27 -16 -35 -20 -21 -78 -21 -95 0 -11 14 -15 13 -31 -8 -23 -31 -22 -39 8 -62 61 -44 150 -23 186 45 15 28 18 57 18 172 l0 138 -42 -2 c-24 -1 -56 4 -71 10 -16 6 -29 11 -30 10 -1 0 -13 -5 -27 -10z"/>
<path d="M5086 4339 c-88 -24 -120 -142 -61 -226 23 -33 83 -48 129 -33 52 17 76 59 76 132 0 49 -4 62 -27 88 -33 35 -76 50 -117 39z"/>
<path d="M5365 4343 c-66 -13 -105 -65 -105 -139 0 -96 70 -152 154 -124 39 12 43 24 21 54 -9 12 -21 17 -37 13 -22 -6 -58 7 -48 17 3 2 34 15 70 29 75 28 83 45 48 97 -24 36 -70 59 -103 53z"/>
<path d="M6084 4334 c-44 -22 -64 -62 -64 -132 0 -50 4 -66 25 -90 32 -38 75 -49 115 -29 16 9 30 11 30 6 0 -5 16 -9 35 -9 l35 0 0 125 0 126 -42 -2 c-24 -1 -56 4 -71 10 -34 13 -26 14 -63 -5z"/>
<path d="M6974 4342 c-12 -2 -34 -17 -50 -33 -27 -28 -29 -36 -29 -104 0 -64 3 -77 24 -99 32 -34 83 -43 116 -22 14 9 25 12 25 6 0 -5 16 -10 35 -10 l35 0 0 126 0 127 -40 -6 c-22 -3 -42 -2 -45 3 -6 10 -44 16 -71 12z"/>
<path d="M7566 4330 c-20 -10 -36 -14 -36 -9 0 5 -16 9 -35 9 l-35 0 0 -125 0 -125 34 0 34 0 4 80 c3 84 21 119 52 107 13 -5 16 -24 16 -97 l0 -90 34 0 34 0 4 80 c3 84 21 119 52 107 13 -5 16 -24 16 -97 l0 -90 35 0 35 0 0 103 c0 61 -5 112 -13 126 -18 35 -58 43 -98 19 -20 -12 -34 -16 -38 -9 -16 25 -59 30 -95 11z"/>
<path d="M9500 4332 c-100 -49 -91 -230 12 -256 29 -7 42 -6 62 8 14 9 26 12 26 6 0 -5 16 -10 35 -10 l35 0 0 126 0 127 -39 -6 c-22 -2 -43 -1 -48 3 -19 18 -50 19 -83 2z"/>
<path d="M5688 4317 c-36 -31 -48 -58 -48 -114 0 -95 70 -151 154 -123 41 13 41 12 21 50 -13 25 -19 28 -38 21 -23 -9 -47 -4 -47 8 0 5 28 18 63 31 34 12 66 26 71 30 13 13 -13 78 -41 100 -36 28 -100 27 -135 -3z"/>
<path d="M7902 4324 c-65 -45 -71 -174 -9 -225 31 -26 81 -34 118 -19 69 29 96 114 61 193 -11 25 -29 50 -40 56 -30 16 -104 13 -130 -5z"/>
<path d="M9824 4313 c-25 -27 -25 -27 -31 -5 -4 16 -13 22 -34 22 l-29 0 0 -125 0 -125 35 0 35 0 0 60 c0 70 15 108 46 116 21 5 34 29 34 67 0 25 -27 21 -56 -10z"/>
<path d="M8130 4222 c0 -128 11 -152 67 -152 21 0 45 8 56 18 15 12 21 14 24 5 3 -7 18 -13 34 -13 l29 0 0 125 0 125 -35 0 -35 0 0 -74 c0 -81 -21 -125 -53 -113 -14 5 -17 22 -17 97 l0 90 -35 0 -35 0 0 -108z"/>
<path d="M8640 3678 c0 -33 -3 -39 -12 -30 -17 17 -53 15 -70 -5 -25 -30 -28 -52 -13 -89 14 -33 16 -34 64 -32 l51 2 0 98 c0 59 -4 98 -10 98 -5 0 -10 -19 -10 -42z"/>
<path d="M3957 3642 c-23 -25 -22 -84 2 -106 14 -12 31 -16 61 -13 l43 4 0 63 0 63 -45 3 c-34 3 -49 0 -61 -14z"/>
<path d="M4427 3653 c-11 -10 -8 -181 3 -188 6 -4 10 8 10 29 0 34 1 35 35 29 46 -7 75 17 75 64 0 54 -49 89 -90 63 -9 -5 -17 -5 -20 1 -4 5 -9 6 -13 2z"/>
<path d="M5596 3638 c-20 -29 -20 -67 0 -96 13 -18 23 -22 65 -20 l50 2 -3 64 -3 64 -47 4 c-39 4 -49 1 -62 -18z"/>
<path d="M6120 3640 c-24 -24 -26 -67 -4 -98 13 -18 23 -22 65 -20 l50 2 -3 65 -3 64 -42 4 c-33 3 -47 -1 -63 -17z"/>
<path d="M7035 3640 c-20 -22 -22 -68 -5 -99 9 -17 19 -21 60 -19 l50 2 0 66 0 65 -44 2 c-32 2 -47 -2 -61 -17z"/>
<path d="M7540 3640 c-43 -43 -14 -120 45 -120 24 0 39 7 49 22 34 49 5 118 -49 118 -14 0 -34 -9 -45 -20z"/>
<path d="M7927 3653 c-11 -11 -8 -193 3 -193 6 0 10 15 10 34 0 34 1 35 35 29 48 -8 75 17 75 67 0 56 -47 88 -90 60 -9 -5 -17 -5 -20 1 -4 5 -9 6 -13 2z"/>
<path d="M9503 3652 c-23 -15 -35 -64 -22 -95 14 -34 41 -46 92 -39 l37 4 0 68 0 67 -47 1 c-27 1 -53 -2 -60 -6z"/>
<path d="M10183 3652 c-20 -13 -33 -60 -24 -85 13 -35 37 -50 71 -45 27 4 31 2 28 -16 -3 -18 -9 -21 -46 -18 -52 3 -54 -17 -4 -32 24 -7 37 -5 57 8 22 14 25 24 26 76 1 33 2 72 3 88 1 26 -1 27 -49 30 -27 1 -55 -1 -62 -6z"/>
<path d="M4380 3320 c0 -37 -2 -40 -19 -30 -29 15 -49 12 -71 -10 -24 -24 -26 -67 -4 -98 12 -18 23 -22 65 -20 l49 2 0 98 c0 59 -4 98 -10 98 -5 0 -10 -18 -10 -40z"/>
<path d="M4690 3320 c0 -39 -1 -39 -25 -28 -55 25 -102 -39 -73 -99 12 -25 19 -28 66 -29 l52 -1 0 99 c0 59 -4 98 -10 98 -5 0 -10 -18 -10 -40z"/>
<path d="M4827 3353 c-4 -3 -7 -47 -7 -98 l0 -91 55 -2 c62 -3 75 10 75 72 0 43 -35 72 -75 62 -23 -6 -25 -4 -25 29 0 33 -8 43 -23 28z"/>
<path d="M7010 3255 c0 -57 4 -95 10 -95 6 0 10 18 10 40 l0 40 40 0 c38 0 41 -3 56 -40 9 -22 20 -40 25 -40 12 0 12 3 -7 50 -13 31 -14 44 -5 53 18 18 13 65 -8 77 -11 5 -42 10 -70 10 l-51 0 0 -95z"/>
<path d="M2477 3282 c-20 -22 -22 -81 -4 -105 36 -47 117 -16 117 47 0 47 -25 76 -64 76 -19 0 -40 -8 -49 -18z"/>
<path d="M3381 3281 c-26 -26 -28 -82 -3 -104 12 -11 33 -16 65 -15 l47 2 0 63 c0 47 -4 63 -14 63 -7 0 -27 3 -44 6 -22 5 -35 1 -51 -15z"/>
<path d="M5001 3281 c-26 -26 -28 -82 -3 -104 12 -11 33 -16 65 -15 l47 2 0 63 c0 52 -3 62 -17 62 -10 0 -30 3 -45 6 -19 5 -32 1 -47 -14z"/>
<path d="M6631 3281 c-25 -25 -28 -82 -5 -105 10 -11 31 -15 65 -14 l49 2 0 63 c0 52 -3 62 -17 62 -10 0 -30 3 -45 6 -19 5 -32 1 -47 -14z"/>
<path d="M8491 3281 c-26 -26 -28 -82 -3 -104 12 -11 33 -16 65 -15 l47 2 0 63 c0 52 -3 62 -17 62 -10 0 -30 3 -45 6 -19 5 -32 1 -47 -14z"/>
<path d="M8817 3285 c-26 -25 -32 -65 -16 -94 13 -23 22 -26 67 -27 l52 -1 0 64 c0 47 -4 63 -14 63 -7 0 -27 3 -43 6 -21 4 -35 1 -46 -11z"/>
<path d="M8987 3289 c-45 -26 -40 -99 9 -121 20 -9 30 -9 45 0 17 11 19 9 19 -12 0 -33 -21 -47 -60 -39 -24 4 -31 3 -26 -5 10 -16 81 -15 94 1 6 7 11 44 13 82 2 93 2 98 -16 92 -8 -4 -17 -2 -20 3 -8 13 -35 12 -58 -1z"/>
<path d="M10080 2967 c0 -38 0 -38 -34 -32 -45 9 -76 -20 -76 -70 0 -51 29 -76 82 -71 l43 4 3 92 c2 55 -1 97 -8 104 -7 7 -10 -2 -10 -27z"/>
<path d="M3090 2896 c0 -84 2 -95 18 -94 9 1 27 -2 39 -6 27 -9 73 31 73 64 0 52 -42 86 -84 70 -25 -9 -26 -8 -26 25 0 19 -4 35 -10 35 -6 0 -10 -38 -10 -94z"/>
<path d="M3271 2923 c-50 -41 -14 -146 43 -128 12 4 29 7 39 6 14 0 17 10 17 64 0 54 -3 64 -17 64 -10 -1 -27 2 -39 6 -13 4 -28 0 -43 -12z"/>
<path d="M4522 2920 c-25 -24 -30 -76 -9 -104 8 -10 25 -18 43 -17 81 1 74 -5 74 65 0 60 -2 64 -22 64 -13 0 -32 3 -43 6 -13 5 -28 0 -43 -14z"/>
<path d="M4845 2916 c-14 -14 -25 -37 -25 -51 0 -37 44 -78 73 -69 12 4 30 7 40 6 14 -1 17 9 17 63 0 54 -3 64 -17 63 -10 -1 -28 2 -40 6 -17 5 -29 1 -48 -18z"/>
<path d="M5024 2930 c-29 -11 -37 -26 -36 -62 1 -45 30 -71 69 -65 27 5 33 2 33 -12 0 -29 -25 -44 -61 -36 -22 5 -29 4 -25 -4 10 -16 81 -14 95 3 7 8 13 51 15 95 2 75 1 80 -19 79 -11 0 -27 2 -35 5 -8 3 -25 2 -36 -3z"/>
<path d="M6035 2916 c-32 -32 -32 -70 0 -101 27 -28 45 -31 64 -12 11 10 14 9 18 -1 11 -29 23 4 23 63 0 59 -1 63 -22 62 -13 0 -31 3 -40 7 -12 5 -25 0 -43 -18z"/>
<path d="M7300 2930 c-8 -5 -22 -7 -30 -5 -13 4 -15 -10 -15 -87 1 -62 5 -93 13 -96 8 -2 12 9 12 32 0 34 1 35 25 24 19 -9 29 -8 50 6 20 13 25 24 25 60 0 24 -6 48 -12 54 -22 16 -52 22 -68 12z"/>
<path d="M8170 2927 c-69 -35 -24 -160 46 -128 15 6 24 7 24 1 0 -6 5 -10 10 -10 6 0 10 30 10 71 0 52 -3 70 -12 66 -7 -2 -22 -1 -34 4 -12 4 -31 2 -44 -4z"/>
<path d="M8500 2933 c-43 -15 -55 -88 -20 -123 22 -22 55 -26 65 -10 5 8 11 7 21 -1 17 -14 16 -19 18 63 1 62 0 67 -19 66 -11 0 -27 2 -35 5 -8 3 -22 3 -30 0z"/>
<path d="M8670 2932 c-51 -16 -66 -76 -29 -113 16 -16 29 -20 55 -16 29 5 34 3 34 -13 0 -25 -33 -42 -65 -34 -15 4 -25 2 -25 -5 0 -11 25 -15 65 -11 35 3 45 29 45 113 0 68 -2 78 -16 73 -8 -3 -23 -2 -32 3 -9 4 -24 6 -32 3z"/>
<path d="M9665 2914 c-11 -11 -15 -30 -13 -57 2 -33 9 -44 30 -57 22 -12 32 -12 47 -3 14 9 21 9 30 0 14 -14 13 -16 16 64 l2 66 -48 2 c-32 0 -53 -5 -64 -15z"/>
<path d="M4706 2614 c-19 -18 -19 -20 -6 -45 8 -15 6 -25 -11 -48 -26 -35 -22 -61 13 -80 23 -13 32 -13 63 -2 27 9 39 10 50 1 9 -7 15 -8 20 0 3 5 -1 13 -10 16 -13 5 -15 15 -9 52 5 32 4 43 -5 38 -6 -4 -11 -16 -11 -27 0 -25 -12 -24 -36 2 -17 19 -18 21 -1 30 22 13 23 65 1 73 -25 10 -42 7 -58 -10z"/>
<path d="M5144 2617 c-3 -8 -4 -50 -2 -95 3 -87 21 -117 26 -44 3 38 6 42 30 42 36 0 49 -10 57 -42 7 -29 35 -60 35 -39 0 6 -7 28 -15 47 -12 30 -13 39 -1 55 19 28 8 69 -21 80 -37 14 -103 11 -109 -4z"/>
<path d="M6920 2528 c0 -76 3 -99 11 -91 9 9 16 9 30 0 15 -9 25 -9 46 3 37 21 50 59 32 96 -13 25 -20 29 -57 29 -41 0 -42 1 -42 33 0 17 -4 32 -10 32 -6 0 -10 -41 -10 -102z"/>
<path d="M8510 2596 c0 -34 0 -34 -38 -29 -47 6 -67 -14 -67 -68 0 -51 16 -64 75 -65 l50 -1 0 99 c0 59 -4 98 -10 98 -5 0 -10 -15 -10 -34z"/>
<path d="M6368 2473 c2 -51 8 -93 13 -93 5 0 9 16 9 35 0 33 1 34 25 23 39 -18 75 11 75 62 0 53 -20 70 -78 68 l-47 -2 3 -93z"/>
<path d="M8097 2552 c-23 -25 -22 -77 3 -102 15 -15 30 -19 62 -16 l43 4 0 63 0 62 -46 4 c-35 3 -49 0 -62 -15z"/>
<path d="M8746 2548 c-19 -27 -20 -51 -5 -81 15 -28 28 -37 57 -37 53 0 84 87 44 123 -27 25 -78 22 -96 -5z"/>
<path d="M4680 2035 c0 -33 -1 -34 -30 -28 -40 8 -70 -19 -70 -62 0 -45 27 -67 76 -62 l39 4 3 92 c2 58 -1 91 -8 91 -5 0 -10 -16 -10 -35z"/>
<path d="M4987 2063 c-4 -3 -7 -48 -7 -100 l0 -93 54 0 c39 0 55 4 60 15 4 11 -5 16 -34 21 -30 5 -40 11 -40 25 0 15 7 19 31 19 24 0 30 4 27 18 -2 10 -14 18 -31 20 -38 5 -36 32 3 32 34 0 52 26 29 41 -16 10 -83 12 -92 2z"/>
<path d="M8192 2054 c-12 -8 -22 -22 -22 -30 0 -22 31 -30 42 -11 12 23 28 21 28 -2 0 -11 -9 -21 -21 -24 -26 -7 -20 -31 9 -35 29 -4 30 -42 2 -42 -11 0 -20 5 -20 10 0 6 -9 10 -20 10 -24 0 -27 -32 -5 -50 19 -16 71 -16 90 0 20 17 24 46 10 73 -8 15 -9 30 -4 38 14 22 11 37 -11 59 -24 24 -48 25 -78 4z"/>
<path d="M8485 2045 c-14 -13 -25 -32 -25 -42 0 -31 29 -63 57 -63 l26 0 -21 -23 c-40 -43 -17 -75 25 -36 56 52 69 135 27 168 -35 27 -59 26 -89 -4z"/>
<path d="M8677 2028 c-69 -93 -72 -118 -12 -118 28 0 35 -4 35 -20 0 -33 36 -25 50 11 10 24 11 36 2 49 -6 10 -9 33 -7 50 8 67 -28 82 -68 28z"/>
<path d="M970 1280 l0 -510 630 0 630 0 0 510 0 510 -630 0 -630 0 0 -510z m1228 -7 l-3 -468 -597 -3 -598 -2 0 480 0 480 593 2 c446 2 594 0 600 -9 4 -6 6 -222 5 -480z"/>
<path d="M6860 1270 c0 -143 1 -150 20 -150 17 0 20 7 20 44 0 47 28 95 48 82 7 -4 12 -32 12 -67 0 -56 1 -59 25 -59 24 0 25 2 25 66 0 36 -5 74 -10 85 -12 21 -50 25 -81 9 -18 -10 -19 -7 -19 65 0 68 -2 75 -20 75 -19 0 -20 -7 -20 -150z"/>
<path d="M7427 1402 c-11 -12 -17 -36 -17 -64 0 -32 -5 -48 -15 -52 -8 -3 -15 -15 -15 -26 0 -11 7 -20 15 -20 12 0 15 -13 15 -60 0 -53 2 -60 20 -60 16 0 19 8 22 58 3 51 5 57 26 60 31 5 27 46 -5 50 -19 3 -23 10 -23 36 0 31 20 63 32 51 9 -9 30 23 23 35 -10 17 -61 11 -78 -8z"/>
<path d="M6512 1270 c-29 -76 -52 -141 -52 -144 0 -3 9 -6 20 -6 13 0 24 10 30 25 8 21 16 25 54 25 38 0 45 -3 50 -25 5 -18 13 -25 31 -25 14 0 25 4 25 9 0 5 -20 64 -45 130 -25 66 -45 125 -45 130 0 5 -4 12 -8 15 -5 3 -32 -57 -60 -134z"/>
<path d="M5344 1382 c-80 -67 -69 -213 19 -256 132 -64 234 135 126 243 -25 26 -38 31 -77 31 -30 -1 -55 -7 -68 -18z m106 -42 c11 -6 25 -28 31 -49 10 -33 9 -45 -7 -78 -16 -31 -25 -39 -53 -41 -50 -5 -81 28 -81 87 0 72 53 111 110 81z"/>
<path d="M5647 1284 c-16 -9 -27 -10 -27 -4 0 5 -9 10 -20 10 -18 0 -20 -7 -20 -85 0 -78 2 -85 20 -85 17 0 20 7 20 44 0 41 30 99 44 85 3 -3 8 -32 10 -65 2 -32 5 -60 5 -61 1 -2 10 -3 21 -3 17 0 20 7 20 49 0 49 21 88 41 76 5 -4 9 -33 9 -66 0 -56 1 -59 25 -59 24 0 25 2 25 66 0 36 -5 74 -10 85 -12 22 -59 26 -78 7 -9 -9 -15 -10 -20 -2 -13 19 -37 22 -65 8z"/>
<path d="M5870 1205 c0 -78 2 -85 20 -85 17 0 20 7 20 44 0 47 28 95 48 82 7 -4 12 -32 12 -67 0 -56 1 -59 25 -59 24 0 25 3 25 59 0 86 -12 111 -53 111 -18 0 -38 -5 -45 -12 -9 -9 -12 -9 -12 0 0 7 -9 12 -20 12 -18 0 -20 -7 -20 -85z"/>
<path d="M6171 1263 c-47 -59 -7 -164 57 -149 15 4 42 7 60 6 l33 -1 -3 83 -3 82 -62 3 c-56 2 -64 0 -82 -24z"/>
<path d="M7195 1260 c-37 -71 -3 -160 55 -145 14 4 40 6 58 6 l32 -1 0 83 0 83 -65 2 c-62 1 -65 0 -80 -28z"/>
</g>
</svg>
