<?xml version="1.0" standalone="no"?>
<!DOCTYPE svg PUBLIC "-//W3C//DTD SVG 20010904//EN" "http://www.w3.org/TR/2001/REC-SVG-20010904/DTD/svg10.dtd">
<svg xmlns="http://www.w3.org/2000/svg" version="1.0" width="1080.000000pt" height="830.000000pt" viewBox="0 0 1080.000000 830.000000" preserveAspectRatio="xMidYMid meet">
<metadata>
Created by potrace 1.16, written by Peter Selinger 2001-2019
<meta name="Producer" content="Online-Convert"/></metadata>
<g transform="translate(0.000000,830.000000) scale(0.100000,-0.100000)" fill="#000000" stroke="none">
<path d="M632 4358 l3 -3403 4765 0 4765 0 3 3403 2 3402 -4770 0 -4770 0 2 -3402z m9333 -3 l0 -3200 -4565 0 -4565 0 -3 3190 c-1 1755 0 3196 3 3203 3 10 922 12 4567 10 l4563 -3 0 -3200z"/>
<path d="M6633 6718 c-35 -9 -53 -33 -50 -66 1 -24 32 -31 40 -9 3 9 7 9 19 0 11 -10 17 -10 26 -1 7 7 12 8 12 2 0 -5 -4 -14 -10 -20 -5 -5 -12 -32 -16 -59 -8 -73 -11 -80 -29 -65 -17 14 -57 10 -62 -7 -6 -18 36 -56 57 -50 15 4 19 -2 22 -30 l3 -35 37 36 c21 20 37 42 35 49 -1 7 4 11 11 10 6 -2 12 2 12 7 0 23 32 7 46 -22 15 -32 15 -31 9 40 -3 46 -1 72 5 72 6 0 -3 26 -18 58 -16 31 -28 62 -25 67 2 6 -5 11 -14 12 -10 0 -31 5 -48 10 -18 6 -43 6 -62 1z"/>
<path d="M4228 6418 c-3 -57 -3 -107 -1 -112 11 -17 23 21 24 74 l2 55 10 -67 c5 -38 13 -68 17 -68 4 0 11 30 17 68 l10 67 1 -67 c3 -108 22 -81 22 30 0 125 -24 171 -37 73 -8 -59 -19 -59 -27 -1 -4 32 -12 50 -20 50 -10 0 -15 -26 -18 -102z"/>
<path d="M6640 6276 c0 -26 -16 -36 -57 -36 -15 0 -23 -5 -20 -12 2 -7 -4 -37 -15 -67 -22 -65 -21 -61 -3 -61 10 0 15 10 15 34 0 60 15 86 50 86 l31 0 -3 -330 c-2 -182 0 -330 3 -330 16 0 19 51 19 346 0 333 -2 321 41 316 4 -1 5 8 2 18 -3 11 -14 20 -24 20 -12 0 -19 7 -19 20 0 11 -4 20 -10 20 -5 0 -10 -11 -10 -24z"/>
<path d="M6331 5883 c0 -282 -3 -328 -16 -335 -9 -5 -15 -22 -15 -41 1 -27 2 -29 11 -14 5 9 16 17 23 17 8 0 15 8 17 18 8 37 -2 682 -10 682 -5 0 -10 -144 -10 -327z"/>
<path d="M4310 5235 c0 -101 9 -141 23 -102 4 10 7 10 18 0 19 -19 56 -16 79 7 27 27 28 100 2 123 -22 20 -63 22 -80 5 -13 -13 -15 -6 -12 50 1 23 -3 32 -14 32 -14 0 -16 -17 -16 -115z"/>
<path d="M3272 5235 c2 -76 7 -110 16 -113 8 -2 12 10 12 42 0 41 2 46 23 46 16 0 29 -12 47 -45 14 -25 30 -45 37 -45 19 0 16 11 -13 54 l-26 38 21 22 c47 50 18 97 -63 104 l-57 5 3 -108z"/>
<path d="M4155 5323 c-4 -10 -22 -59 -40 -109 -28 -78 -31 -91 -16 -87 9 2 22 18 28 34 9 23 17 29 40 28 44 -2 63 -9 63 -24 0 -16 30 -48 38 -41 3 3 -12 53 -34 111 -28 77 -43 105 -55 105 -9 0 -20 -8 -24 -17z"/>
<path d="M5472 5233 c4 -130 21 -141 28 -17 l5 85 30 -85 c39 -114 53 -114 91 0 l29 85 5 -85 c7 -124 24 -113 28 17 3 102 2 107 -18 107 -21 0 -40 -34 -70 -127 -7 -24 -16 -43 -19 -43 -4 0 -19 38 -35 85 -26 75 -32 85 -53 85 -24 0 -24 0 -21 -107z"/>
<path d="M4533 5280 c-50 -20 -60 -105 -17 -139 55 -44 119 -12 119 58 0 61 -51 101 -102 81z"/>
<path d="M6180 5280 c-8 -5 -25 -7 -38 -3 -23 5 -23 4 -20 -73 2 -51 7 -79 16 -82 8 -2 12 12 12 50 0 64 16 91 51 86 22 -3 24 -8 29 -66 3 -34 10 -62 15 -62 6 0 12 28 15 62 5 62 5 63 35 63 30 0 30 -1 35 -63 7 -84 24 -84 28 0 3 63 1 68 -24 84 -24 16 -29 17 -54 2 -23 -13 -29 -13 -45 -2 -22 16 -34 17 -55 4z"/>
<path d="M6450 5277 c-37 -19 -54 -61 -41 -99 31 -88 141 -72 141 21 0 64 -50 103 -100 78z"/>
<path d="M5770 4476 c0 -94 8 -118 34 -97 9 7 16 7 24 -1 18 -18 62 0 73 30 25 64 -23 134 -72 104 -17 -11 -19 -9 -19 23 0 28 -4 35 -20 35 -19 0 -20 -7 -20 -94z"/>
<path d="M3690 4464 l0 -97 52 6 c69 9 98 36 98 94 0 63 -32 93 -100 93 l-50 0 0 -96z"/>
<path d="M3965 4496 c-11 -17 -14 -30 -7 -43 12 -24 8 -71 -6 -85 -16 -16 -15 -23 4 -42 17 -18 76 -21 103 -6 47 25 30 80 -24 80 -18 0 -37 5 -40 10 -3 6 5 10 19 10 29 0 56 24 56 50 0 10 5 22 10 25 24 15 6 25 -45 25 -47 0 -57 -3 -70 -24z"/>
<path d="M4775 4500 c-14 -16 -16 -25 -8 -43 12 -28 10 -74 -5 -89 -16 -16 -15 -23 4 -42 19 -19 84 -21 106 -3 40 31 24 77 -27 77 -18 0 -37 5 -40 10 -3 6 5 10 19 10 31 0 56 24 56 56 0 13 5 24 10 24 6 0 10 5 10 10 0 6 -24 10 -53 10 -41 0 -58 -5 -72 -20z"/>
<path d="M5074 4507 c-3 -8 -4 -54 -2 -103 3 -75 6 -89 21 -92 14 -3 17 4 17 32 0 34 1 35 29 30 58 -12 94 69 55 124 -16 23 -53 29 -71 11 -8 -8 -13 -8 -17 0 -10 15 -26 14 -32 -2z"/>
<path d="M5457 2562 c-24 -26 -21 -57 8 -80 24 -19 25 -25 25 -126 l0 -106 -55 0 -55 0 0 54 c0 44 4 56 21 68 14 9 22 24 22 43 0 50 -63 74 -96 37 -24 -26 -21 -57 8 -80 21 -17 25 -28 25 -71 l0 -51 -204 0 c-126 0 -207 -4 -211 -10 -4 -7 183 -10 555 -10 385 0 559 3 555 10 -4 7 -74 10 -193 10 -103 0 -195 -1 -204 0 -15 0 -18 9 -18 54 0 44 4 56 21 68 14 9 22 24 22 43 0 50 -63 74 -96 37 -24 -27 -21 -59 8 -78 22 -14 25 -24 25 -70 l0 -54 -55 0 -55 0 0 108 c0 103 1 109 25 130 30 26 32 45 5 72 -25 25 -62 26 -83 2z"/>
<path d="M7850 2360 c-28 -38 -49 -59 -58 -55 -7 3 -27 5 -43 5 l-30 0 21 31 c12 16 20 33 17 36 -10 10 -107 -160 -107 -188 0 -16 21 -10 66 21 24 16 44 24 44 18 0 -7 7 -3 16 8 14 18 15 18 4 -4 -6 -12 -15 -20 -21 -17 -10 7 -25 -22 -16 -32 10 -9 39 27 52 65 9 26 20 38 35 40 19 3 22 0 18 -20 -3 -12 -9 -31 -13 -40 -12 -29 23 -22 56 11 42 42 38 60 -11 58 -21 -1 -42 2 -45 5 -4 3 10 29 31 57 20 29 34 54 32 56 -3 3 -24 -22 -48 -55z"/>
<path d="M5378 1668 l-48 -30 0 -74 c0 -113 35 -164 112 -164 48 0 152 60 173 100 19 36 21 186 3 192 -6 2 -29 -5 -50 -16 l-38 -21 0 -88 c0 -98 -13 -118 -53 -78 -18 18 -23 37 -27 113 -3 50 -9 93 -15 94 -5 1 -31 -11 -57 -28z m52 -68 c0 -77 16 -122 51 -140 30 -17 6 -40 -40 -40 -62 0 -85 34 -89 129 l-4 78 34 21 c18 12 36 22 41 22 4 0 7 -32 7 -70z"/>
<path d="M5977 1623 c-4 -3 -7 -39 -7 -80 l0 -73 40 0 c69 0 111 63 80 120 -14 25 -97 50 -113 33z"/>
</g>
</svg>
