<?xml version="1.0" standalone="no"?>
<!DOCTYPE svg PUBLIC "-//W3C//DTD SVG 20010904//EN" "http://www.w3.org/TR/2001/REC-SVG-20010904/DTD/svg10.dtd">
<svg xmlns="http://www.w3.org/2000/svg" version="1.0" width="1058.000000pt" height="749.000000pt" viewBox="0 0 1058.000000 749.000000" preserveAspectRatio="xMidYMid meet">
<metadata>
Created by potrace 1.16, written by Peter Selinger 2001-2019
<meta name="Producer" content="Online-Convert"/></metadata>
<g transform="translate(0.000000,749.000000) scale(0.100000,-0.100000)" fill="#000000" stroke="none">
<path d="M0 3745 l0 -3745 5293 2 5292 3 -5262 2 -5263 3 0 3725 0 3725 5260 0 c4669 0 5260 2 5260 15 0 13 -594 15 -5290 15 l-5290 0 0 -3745z"/>
<path d="M1746 6929 c4 -7 0 -9 -14 -5 -31 10 -59 -36 -45 -72 5 -15 15 -26 22 -24 7 1 10 -2 6 -8 -3 -5 -16 -10 -29 -10 -24 0 -52 -24 -58 -50 -2 -8 -21 -26 -43 -41 -22 -14 -50 -37 -63 -51 -20 -22 -21 -27 -8 -37 13 -11 11 -17 -10 -48 -13 -20 -24 -41 -24 -46 0 -6 13 9 28 34 34 52 102 114 143 128 l29 10 0 -59 c0 -52 -3 -62 -25 -76 -30 -20 -65 -75 -64 -100 0 -12 4 -7 10 11 4 17 24 46 44 65 l35 34 0 -122 c0 -112 -2 -122 -18 -122 -24 0 -51 29 -62 66 -6 23 -8 25 -9 8 -1 -12 8 -33 20 -48 17 -21 18 -26 5 -26 -12 0 -16 -10 -16 -40 l0 -40 150 0 150 0 0 40 c0 34 -3 40 -21 40 l-20 0 20 26 c12 15 21 34 21 43 -1 9 -7 2 -14 -14 -15 -34 -32 -51 -61 -58 -11 -2 -1 -5 23 -6 40 -1 42 -3 42 -31 l0 -30 -140 0 -140 0 0 30 c0 28 2 30 40 30 l40 0 0 215 0 215 -25 0 c-14 0 -25 4 -25 8 0 22 30 32 100 33 41 1 67 3 57 6 -9 2 -14 9 -11 15 10 15 14 60 8 79 -2 9 -16 21 -30 28 -18 8 -23 8 -18 0z"/>
<path d="M1810 6673 c0 -86 1 -89 31 -118 18 -16 38 -43 45 -60 7 -16 13 -24 14 -16 0 20 -39 80 -61 91 -15 9 -19 22 -19 70 0 33 4 60 8 60 12 0 93 -59 115 -84 36 -42 67 -120 67 -172 0 -103 -97 -228 -203 -259 -63 -19 -71 -19 -133 0 -59 17 -125 71 -167 135 -16 25 -27 36 -23 26 4 -13 -1 -27 -15 -42 -20 -22 -21 -25 -6 -47 12 -19 13 -27 4 -36 -18 -19 88 -114 155 -139 l53 -20 10 -93 c9 -87 12 -93 36 -101 15 -5 36 -5 52 1 24 9 26 15 32 100 l7 89 74 36 c85 42 148 107 139 143 -3 12 0 25 6 28 7 5 1 17 -15 34 -26 27 -26 29 -11 64 24 59 19 126 -15 193 -26 52 -28 60 -14 75 13 15 11 20 -25 52 -40 36 -78 59 -118 71 -23 7 -23 6 -23 -81z m210 -448 c0 -17 -92 -101 -135 -123 -43 -23 -62 -27 -140 -27 -75 0 -98 4 -140 24 -48 24 -142 107 -132 117 3 3 29 -13 58 -35 108 -82 236 -98 350 -44 35 17 78 44 94 61 28 29 45 39 45 27z m-224 -253 c-4 -48 -10 -89 -12 -91 -6 -6 -72 -6 -78 0 -2 2 -7 43 -11 91 l-7 87 57 0 58 0 -7 -87z"/>
<path d="M2430 6612 c-20 -11 -46 -38 -60 -63 -21 -37 -25 -57 -25 -129 0 -72 4 -91 24 -124 34 -54 74 -76 141 -76 87 0 132 39 154 133 6 27 5 28 -26 25 -26 -2 -33 -8 -40 -35 -10 -38 -51 -73 -85 -73 -39 0 -79 27 -98 66 -23 50 -18 158 10 196 44 60 122 60 160 1 14 -23 28 -32 48 -33 15 0 27 3 27 7 0 23 -44 91 -69 106 -39 23 -117 22 -161 -1z"/>
<path d="M3500 6623 c-25 -9 -40 -35 -40 -69 0 -23 -5 -33 -20 -37 -12 -3 -20 -14 -20 -26 0 -14 6 -21 20 -21 19 0 20 -7 20 -120 l0 -120 25 0 25 0 0 120 0 120 26 0 c21 0 25 4 22 23 -2 14 -11 23 -25 25 -36 5 -27 62 9 62 14 0 19 6 16 23 -3 22 -28 31 -58 20z"/>
<path d="M5173 6615 c-13 -9 -24 -31 -28 -55 -4 -25 -12 -40 -21 -40 -8 0 -14 -10 -14 -25 0 -16 6 -25 15 -25 13 0 15 -20 15 -120 l0 -120 30 0 30 0 0 120 c0 113 1 120 20 120 15 0 20 7 20 25 0 18 -5 25 -20 25 -15 0 -20 7 -20 26 0 17 6 28 20 31 13 3 20 14 20 29 0 29 -33 33 -67 9z"/>
<path d="M5505 6618 c-35 -97 -125 -369 -125 -377 0 -6 13 -11 28 -11 26 0 30 5 46 55 l17 55 69 0 69 0 16 -55 c16 -53 18 -55 50 -55 l33 0 -66 200 -67 200 -33 0 c-18 0 -35 -6 -37 -12z"/>
<path d="M6010 6430 l0 -200 25 0 c25 0 25 1 25 90 0 99 12 138 46 146 56 14 59 8 62 -119 l3 -117 30 0 31 0 -4 126 c-3 118 -4 127 -27 145 -26 21 -90 26 -122 9 -18 -10 -19 -7 -19 55 0 63 -1 65 -25 65 l-25 0 0 -200z"/>
<path d="M3190 6555 c0 -24 -5 -35 -15 -35 -9 0 -15 -9 -15 -25 0 -16 6 -25 15 -25 12 0 15 -19 15 -113 0 -75 4 -117 12 -125 7 -7 29 -12 50 -12 34 0 38 3 38 24 0 18 -6 25 -22 28 -22 3 -23 8 -26 101 l-3 97 26 0 c22 0 26 4 23 23 -2 14 -11 23 -25 25 -19 3 -23 10 -23 38 0 30 -3 34 -25 34 -22 0 -25 -4 -25 -35z"/>
<path d="M4270 6555 c0 -24 -5 -35 -15 -35 -9 0 -15 -9 -15 -25 0 -16 6 -25 15 -25 12 0 15 -18 15 -106 0 -128 7 -144 60 -144 36 0 40 3 40 25 0 18 -5 25 -20 25 -19 0 -20 7 -20 100 0 93 1 100 20 100 15 0 20 7 20 25 0 18 -5 25 -20 25 -16 0 -20 7 -20 35 0 32 -2 35 -30 35 -28 0 -30 -3 -30 -35z"/>
<path d="M8260 6556 c0 -25 -5 -35 -20 -39 -12 -3 -20 -14 -20 -26 0 -14 6 -21 20 -21 19 0 20 -7 20 -113 0 -125 5 -137 57 -137 29 0 33 3 33 25 0 18 -5 25 -20 25 -19 0 -20 7 -20 100 0 93 1 100 20 100 15 0 20 7 20 25 0 18 -5 25 -20 25 -16 0 -20 7 -20 35 0 31 -3 35 -25 35 -22 0 -25 -4 -25 -34z"/>
<path d="M4501 6522 c-14 -2 -35 -10 -47 -19 -71 -46 -72 -218 -3 -267 27 -19 97 -21 133 -5 21 10 56 62 56 83 0 16 -45 3 -66 -19 -41 -44 -100 -28 -118 33 -7 22 -6 22 94 22 l102 0 -7 47 c-4 26 -13 59 -20 73 -20 38 -72 60 -124 52z"/>
<path d="M4931 6522 c-40 -6 -68 -31 -85 -73 -30 -75 -11 -180 39 -213 14 -9 46 -16 74 -16 64 0 106 38 117 105 19 129 -42 213 -145 197z m63 -65 c43 -31 36 -158 -10 -179 -54 -25 -94 15 -94 93 0 82 51 124 104 86z"/>
<path d="M7336 6515 c-20 -7 -36 -9 -36 -4 0 5 -11 9 -25 9 l-25 0 0 -145 0 -145 25 0 c25 0 25 0 25 98 0 112 13 142 59 142 17 0 31 -7 35 -16 3 -9 6 -63 6 -120 l0 -104 25 0 c25 0 25 1 25 85 0 111 17 155 60 155 41 0 50 -26 50 -146 0 -94 0 -94 25 -94 l25 0 0 115 c0 122 -10 160 -44 171 -33 11 -76 7 -101 -10 -19 -13 -25 -13 -34 -2 -17 20 -55 25 -95 11z"/>
<path d="M7765 6522 c-40 -6 -65 -26 -85 -67 -35 -73 -17 -185 35 -219 33 -22 114 -20 141 2 23 18 44 53 44 71 0 22 -48 11 -64 -14 -30 -46 -116 -20 -116 35 0 19 7 20 95 20 93 0 95 0 95 24 0 98 -62 162 -145 148z"/>
<path d="M2762 6504 c-35 -24 -52 -68 -52 -134 0 -103 39 -150 122 -150 38 0 54 5 77 28 16 15 32 37 36 50 5 19 3 22 -20 22 -17 0 -35 -9 -47 -25 -27 -34 -70 -33 -97 1 -38 49 -31 54 75 54 l96 0 -4 57 c-4 48 -10 61 -37 85 -25 22 -41 28 -79 28 -27 0 -57 -7 -70 -16z"/>
<path d="M3010 6375 l0 -145 25 0 c25 0 25 1 25 88 0 102 13 133 58 147 24 7 32 15 32 32 0 18 -6 23 -27 23 -14 0 -35 -7 -45 -17 -17 -15 -18 -15 -18 0 0 11 -8 17 -25 17 l-25 0 0 -145z"/>
<path d="M3746 6495 c-34 -31 -46 -64 -46 -126 0 -55 29 -122 59 -139 25 -13 97 -13 122 0 21 12 49 60 49 85 0 28 -44 17 -62 -15 -13 -23 -24 -30 -47 -30 -41 0 -65 37 -65 100 0 63 24 100 65 100 23 0 34 -7 47 -30 11 -19 25 -30 40 -30 33 0 29 44 -7 81 -40 39 -114 42 -155 4z"/>
<path d="M4006 6499 c-35 -27 -37 -79 -3 -79 14 0 26 9 32 23 13 28 75 36 95 12 22 -26 0 -47 -62 -60 -62 -12 -86 -27 -99 -64 -12 -30 6 -87 31 -101 28 -15 93 -12 117 5 18 13 22 13 33 0 7 -8 25 -15 41 -15 22 0 29 5 29 20 0 11 -7 23 -15 26 -12 5 -15 27 -15 109 0 100 -1 104 -26 124 -19 15 -41 21 -79 21 -38 0 -60 -6 -79 -21z"/>
<path d="M5784 6505 c-70 -49 -72 -220 -3 -269 26 -18 100 -21 130 -6 21 12 49 60 49 85 0 28 -44 17 -62 -15 -13 -23 -24 -30 -47 -30 -57 0 -89 93 -54 160 15 30 23 35 53 35 28 0 37 -5 48 -27 9 -20 21 -28 39 -28 23 0 25 3 19 33 -9 49 -48 77 -104 77 -26 0 -57 -7 -68 -15z"/>
<path d="M6454 6502 c-71 -57 -71 -218 0 -267 24 -18 95 -20 129 -4 23 11 57 57 57 78 0 20 -42 11 -66 -14 -38 -41 -94 -29 -112 25 l-11 30 100 0 c96 0 99 1 99 23 0 43 -22 100 -47 123 -32 30 -116 33 -149 6z"/>
<path d="M6673 6508 c2 -7 24 -73 48 -146 43 -132 44 -133 72 -130 28 3 32 10 78 138 27 74 49 138 49 142 0 4 -13 8 -28 8 -27 0 -30 -5 -62 -106 -38 -117 -34 -118 -76 19 -25 84 -27 87 -56 87 -20 0 -29 -4 -25 -12z"/>
<path d="M7002 6504 c-35 -24 -52 -68 -52 -134 0 -103 39 -150 122 -150 38 0 54 5 77 28 16 15 32 37 36 50 5 19 3 22 -20 22 -17 0 -35 -9 -47 -25 -27 -34 -70 -33 -97 1 -38 49 -31 54 75 54 l96 0 -4 57 c-4 48 -10 61 -37 85 -25 22 -41 28 -79 28 -27 0 -57 -7 -70 -16z"/>
<path d="M7967 6513 c-4 -3 -7 -69 -7 -145 l0 -138 30 0 30 0 0 98 c0 111 13 142 59 142 45 0 51 -15 51 -132 l0 -108 25 0 25 0 0 125 c0 112 -2 127 -20 145 -25 25 -95 27 -128 4 -20 -14 -22 -14 -22 0 0 16 -31 22 -43 9z"/>
<path d="M3160 4948 c-90 -26 -135 -95 -128 -197 5 -69 28 -126 73 -179 22 -26 23 -30 6 -25 -26 7 -61 -14 -61 -37 0 -23 31 -34 76 -25 33 6 34 5 28 -19 -5 -21 -3 -26 12 -26 12 0 27 -16 41 -40 l21 -40 -120 0 c-119 0 -120 0 -149 -29 l-29 -29 0 -172 c0 -173 5 -201 39 -227 24 -19 46 -16 127 17 137 54 244 140 265 211 19 62 4 104 -60 170 -31 32 -53 59 -47 59 5 0 0 10 -11 23 -11 12 -23 30 -26 40 -5 14 0 17 34 17 33 0 40 3 35 15 -3 8 -9 22 -12 30 -7 18 4 19 41 5 35 -13 67 4 63 33 -2 16 -11 23 -30 25 -33 4 -35 13 -7 38 52 47 87 167 69 235 -17 62 -74 114 -140 128 -59 13 -63 13 -110 -1z m135 -27 c51 -23 92 -71 101 -116 8 -47 -12 -124 -46 -179 -28 -43 -95 -96 -122 -96 -9 0 -10 -3 -2 -8 11 -7 34 -45 34 -56 0 -3 -18 -6 -40 -6 -43 0 -46 4 -30 44 5 14 6 26 2 26 -5 0 -28 17 -52 37 -58 50 -90 120 -90 199 0 76 26 119 90 152 53 27 101 28 155 3z"/>
<path d="M5000 4245 l0 -145 25 0 c24 0 25 2 25 65 l0 65 60 0 59 0 3 -62 c3 -57 5 -63 26 -66 22 -3 22 -3 22 143 0 146 0 146 -22 143 -20 -3 -23 -10 -26 -55 l-3 -53 -60 0 -59 0 0 55 c0 52 -1 55 -25 55 l-25 0 0 -145z"/>
<path d="M6220 4246 l0 -143 61 -1 c55 -1 65 2 90 28 24 24 29 37 29 79 0 69 -31 106 -89 105 l-41 -1 0 38 c0 35 -3 39 -25 39 l-25 0 0 -144z"/>
<path d="M6830 4245 c0 -146 0 -146 23 -143 20 3 22 9 27 93 l5 90 30 -93 c25 -80 32 -92 50 -90 15 2 27 23 52 93 l32 90 0 -92 c1 -92 1 -93 26 -93 l25 0 0 145 0 145 -29 0 c-32 0 -38 -11 -86 -158 -9 -29 -19 -51 -21 -49 -3 2 -19 49 -38 103 -32 96 -34 99 -64 102 l-32 3 0 -146z"/>
<path d="M7572 4368 c-7 -7 -12 -22 -12 -35 0 -14 -6 -23 -15 -23 -8 0 -15 -7 -15 -15 0 -9 7 -18 15 -21 11 -5 15 -23 15 -78 0 -79 9 -96 52 -96 21 0 28 5 28 20 0 11 -7 20 -15 20 -12 0 -15 14 -15 65 0 51 3 65 15 65 8 0 15 9 15 20 0 11 -7 20 -15 20 -10 0 -15 11 -15 35 0 36 -15 46 -38 23z"/>
<path d="M3327 4308 c63 -67 80 -115 63 -178 -16 -61 -103 -144 -205 -198 l-80 -41 177 -1 c173 0 178 1 205 24 l28 24 0 186 c0 180 -1 186 -23 208 -20 20 -35 23 -120 27 l-97 3 52 -54z"/>
<path d="M1512 4327 c-21 -22 -22 -32 -22 -203 1 -193 3 -204 54 -224 50 -19 63 -13 69 28 4 30 0 40 -19 55 -31 24 -30 57 1 87 15 14 25 35 25 51 0 60 88 99 139 61 18 -13 37 -18 54 -15 15 3 34 0 41 -7 11 -8 20 -8 35 -1 32 17 103 13 144 -9 l37 -20 0 84 c0 69 -4 88 -21 110 l-20 26 -248 0 c-246 0 -248 0 -269 -23z"/>
<path d="M5320 4313 c-30 -11 -60 -47 -66 -80 -18 -98 61 -162 146 -118 53 27 63 131 16 173 -23 21 -72 34 -96 25z"/>
<path d="M5540 4311 c-8 -6 -27 -7 -42 -4 l-28 6 0 -107 0 -106 25 0 c25 0 25 1 25 80 0 68 3 81 19 90 44 23 61 -6 61 -107 0 -56 2 -63 20 -63 18 0 20 7 20 88 0 48 -4 92 -8 99 -7 11 -54 33 -70 33 -4 0 -14 -4 -22 -9z"/>
<path d="M5724 4306 c-89 -39 -59 -206 36 -206 67 0 100 37 100 111 0 53 -14 78 -55 95 -41 17 -42 17 -81 0z"/>
<path d="M6054 4306 c-28 -13 -44 -33 -44 -57 0 -15 40 -10 46 6 8 20 40 28 64 15 33 -17 24 -28 -35 -40 -79 -16 -109 -66 -65 -110 22 -22 69 -26 100 -10 13 7 21 7 25 0 3 -5 16 -10 27 -10 20 0 21 4 16 91 -4 58 -11 96 -19 104 -22 21 -80 27 -115 11z"/>
<path d="M6563 4310 c-46 -19 -72 -89 -53 -145 20 -62 102 -85 154 -44 30 24 33 44 9 53 -11 5 -23 0 -33 -14 -21 -27 -57 -23 -78 8 l-14 22 70 0 c39 0 73 4 76 8 9 14 -13 78 -32 94 -22 21 -71 29 -99 18z"/>
<path d="M7184 4306 c-61 -27 -73 -137 -19 -183 37 -32 98 -31 130 2 30 30 31 42 4 50 -15 5 -25 1 -35 -14 -24 -34 -84 -22 -84 16 0 9 19 13 70 13 68 0 70 1 70 25 0 40 -21 73 -55 90 -39 18 -41 18 -81 1z"/>
<path d="M7427 4314 c-4 -4 -23 -7 -42 -6 l-35 1 0 -104 c0 -98 1 -105 20 -105 18 0 20 7 20 66 0 70 9 98 36 108 32 12 44 -13 44 -95 0 -78 0 -79 25 -79 25 0 25 1 25 84 0 65 -4 88 -17 104 -19 23 -64 38 -76 26z"/>
<path d="M7784 4306 c-89 -39 -59 -206 36 -206 67 0 100 37 100 111 0 53 -14 78 -55 95 -41 17 -42 17 -81 0z"/>
<path d="M8020 4311 c-8 -6 -27 -7 -42 -4 l-28 6 0 -107 0 -106 25 0 c25 0 25 1 25 80 0 68 3 81 19 90 44 23 61 -6 61 -107 0 -56 2 -63 20 -63 18 0 20 7 20 88 0 48 -4 92 -8 99 -7 11 -54 33 -70 33 -4 0 -14 -4 -22 -9z"/>
<path d="M1671 4154 c-17 -12 -22 -23 -17 -43 4 -20 -2 -32 -27 -54 l-32 -27 24 -20 c13 -11 29 -20 37 -20 18 0 17 -10 -1 -34 -8 -11 -15 -30 -15 -44 l0 -23 191 3 191 3 24 28 c21 24 24 38 24 102 l0 74 -55 26 c-61 30 -94 28 -133 -8 -23 -22 -31 -19 -46 18 -2 6 -15 4 -33 -6 -29 -16 -30 -15 -46 13 -19 32 -50 37 -86 12z"/>
<path d="M1790 3525 c0 -104 2 -125 15 -125 11 0 15 12 15 45 0 42 2 45 19 35 79 -42 149 69 90 144 -22 28 -65 35 -88 14 -11 -10 -14 -10 -18 0 -3 6 -11 12 -19 12 -11 0 -14 -24 -14 -125z"/>
<path d="M7073 1732 c-3 -12 -11 -18 -18 -16 -7 3 -22 -5 -34 -17 -12 -13 -21 -18 -21 -11 0 6 -9 16 -20 22 -32 17 -60 -4 -60 -46 0 -43 32 -61 68 -38 19 13 25 13 42 1 11 -8 32 -12 45 -9 23 4 25 9 25 63 0 58 -17 89 -27 51z"/>
<path d="M1637 1061 c-37 -99 -53 -194 -39 -225 10 -22 8 -25 -11 -29 -18 -3 796 -10 1111 -8 45 0 82 -4 82 -8 0 -9 50 -8 66 1 5 3 141 6 303 6 162 1 296 4 299 7 3 3 -50 5 -118 5 l-124 0 49 52 50 52 -57 -52 c-72 -66 -111 -71 -134 -17 -17 41 -29 39 -37 -5 -9 -42 -27 -38 -20 5 3 21 1 35 -5 35 -12 0 -22 -24 -22 -51 0 -23 -25 -25 -34 -3 -3 9 -6 34 -6 57 l-1 42 -14 -30 -13 -30 -1 42 c-1 52 8 80 20 61 7 -10 9 -9 9 5 0 9 -6 17 -14 17 -15 0 -20 -17 -31 -105 -7 -47 -25 -74 -52 -75 -22 0 -14 30 9 39 16 6 18 10 8 16 -14 9 -40 -18 -40 -42 0 -7 -9 -13 -20 -13 -16 0 -19 5 -14 24 3 13 1 27 -5 30 -7 5 -11 -4 -11 -23 0 -43 -28 -42 -32 2 -2 23 -8 33 -24 35 -24 3 -74 -33 -74 -54 0 -9 -11 -14 -35 -14 -34 0 -35 1 -35 38 0 36 2 38 43 49 61 17 126 78 134 125 5 32 1 41 -25 68 -27 26 -37 30 -84 29 -63 -1 -140 -19 -145 -35 -2 -7 17 -4 49 7 29 10 74 18 99 19 37 0 50 -5 72 -28 31 -32 33 -51 12 -92 -16 -31 -107 -90 -139 -90 -17 0 -18 6 -11 73 3 39 3 68 -2 64 -9 -10 -9 -13 -11 -84 -2 -45 -5 -52 -24 -56 l-23 -4 23 -2 c19 -1 22 -7 22 -41 l0 -40 -49 0 c-30 0 -52 5 -55 13 -5 10 -7 10 -12 0 -3 -8 -24 -13 -52 -13 l-47 1 32 14 c17 7 37 24 44 36 10 20 8 25 -15 46 -15 13 -34 23 -42 23 -10 0 -5 9 15 25 58 50 49 95 -20 95 -43 0 -89 -15 -89 -29 0 -6 16 -3 36 5 74 31 120 -2 73 -52 -31 -33 -39 -30 -40 14 l-2 37 -6 -40 c-3 -22 -11 -40 -18 -40 -22 0 -24 -13 -3 -20 18 -6 21 -12 16 -37 -3 -17 -6 -37 -6 -45 0 -10 -6 -13 -16 -9 -12 4 -15 2 -10 -9 5 -13 -11 -15 -112 -14 -64 1 -108 3 -97 6 11 3 24 9 29 13 5 5 19 5 31 0 28 -10 35 -5 28 21 -6 22 -19 25 -26 7 -3 -8 -6 -5 -6 6 -1 16 -3 16 -20 -5 l-19 -23 -7 32 c-8 40 -30 41 -50 2 -9 -16 -18 -30 -20 -30 -2 0 -2 14 2 30 3 19 1 30 -6 30 -6 0 -11 -11 -11 -24 0 -30 -16 -42 -35 -26 -12 10 -11 16 6 43 21 36 24 63 9 103 -16 40 -29 18 -37 -59 -3 -37 -9 -67 -12 -67 -3 0 -6 30 -6 67 0 114 -45 82 -48 -34 -1 -36 -5 -53 -14 -53 -7 0 -13 9 -13 20 0 11 -4 20 -9 20 -10 0 -21 -47 -13 -55 9 -8 50 -6 56 4 10 15 55 19 67 5 6 -8 22 -14 35 -14 12 0 26 -5 29 -10 5 -7 -50 -10 -169 -9 -193 1 -203 5 -193 59 4 16 2 32 -3 35 -5 3 -12 -11 -16 -31 -7 -38 -39 -62 -68 -51 -27 11 -20 104 15 207 36 109 33 131 -4 31z"/>
</g>
</svg>
