<?xml version="1.0" standalone="no"?>
<!DOCTYPE svg PUBLIC "-//W3C//DTD SVG 20010904//EN" "http://www.w3.org/TR/2001/REC-SVG-20010904/DTD/svg10.dtd">
<svg xmlns="http://www.w3.org/2000/svg" version="1.0" width="1024.000000pt" height="1536.000000pt" viewBox="0 0 1024.000000 1536.000000" preserveAspectRatio="xMidYMid meet">
<metadata>
Created by potrace 1.16, written by Peter Selinger 2001-2019
<meta name="Producer" content="Online-Convert"/></metadata>
<g transform="translate(0.000000,1536.000000) scale(0.100000,-0.100000)" fill="#000000" stroke="none">
<path d="M4994 14730 c-400 -39 -787 -200 -1111 -461 -118 -96 -180 -156 -276 -269 -154 -181 -293 -424 -370 -645 -19 -55 -65 -183 -102 -285 -183 -504 -242 -828 -217 -1187 16 -221 35 -371 77 -581 35 -172 35 -174 35 -451 0 -407 21 -561 101 -727 16 -34 29 -69 29 -78 0 -9 -16 -38 -34 -64 -19 -26 -44 -68 -54 -93 -24 -55 -52 -176 -52 -223 0 -32 -3 -36 -35 -45 -165 -45 -264 -213 -265 -448 0 -81 -3 -95 -21 -112 -12 -11 -101 -52 -198 -91 -186 -76 -472 -195 -606 -253 -156 -67 -492 -234 -561 -279 -266 -174 -475 -585 -648 -1273 -48 -193 -256 -1127 -315 -1420 -22 -110 -70 -299 -106 -420 -35 -121 -65 -235 -65 -254 0 -50 54 -96 195 -166 l118 -58 -6 -71 c-10 -110 -52 -329 -113 -576 -75 -306 -91 -412 -76 -510 12 -87 55 -197 109 -284 l38 -61 -3 -100 c-6 -207 27 -413 87 -538 38 -81 78 -126 401 -454 335 -341 427 -406 624 -443 172 -32 321 20 569 201 68 50 87 58 87 38 0 -6 -42 -95 -93 -198 -263 -527 -420 -1004 -602 -1828 l-5 -23 2984 0 2984 0 -5 77 c-7 102 14 589 33 773 18 179 43 327 89 535 129 577 125 546 83 637 -30 67 -33 80 -32 168 0 82 4 103 28 155 15 33 36 70 48 82 12 12 17 27 13 34 -5 7 -4 10 2 6 6 -4 22 8 35 26 39 52 43 64 13 37 l-29 -25 25 34 c52 72 52 74 -4 16 -36 -39 -57 -69 -57 -84 0 -62 -11 0 -25 143 -8 87 -22 199 -31 249 -21 128 -29 426 -15 572 6 66 29 246 51 400 22 154 46 336 53 405 l12 125 170 7 c260 10 502 58 1006 198 101 29 255 72 342 96 87 24 167 44 177 44 14 0 19 -11 24 -63 11 -97 -12 -978 -39 -1527 -33 -674 -36 -761 -36 -900 0 -80 8 -278 17 -440 20 -360 15 -793 -10 -945 -31 -193 -112 -482 -205 -734 -17 -47 -31 -89 -31 -94 0 -4 12 -7 28 -5 26 3 30 11 99 218 149 445 204 790 188 1175 -38 917 -37 887 -21 1231 41 853 66 1568 66 1890 l0 81 42 19 c58 26 224 138 271 183 22 20 43 45 47 57 6 15 -18 111 -81 335 -82 286 -111 398 -224 864 -129 530 -168 690 -208 850 -25 99 -58 232 -72 295 -142 609 -285 970 -492 1237 -72 93 -114 130 -230 202 -215 133 -438 225 -790 326 -326 95 -496 146 -763 231 -436 140 -406 127 -482 206 l-67 69 -11 92 c-6 52 -24 129 -42 177 -17 47 -31 99 -31 115 0 17 23 80 51 140 28 61 72 175 99 255 34 104 67 181 117 270 92 166 157 304 194 420 34 102 76 287 88 384 6 49 14 69 57 125 81 107 147 262 195 461 7 31 13 36 51 46 44 10 71 35 71 64 0 27 -38 60 -70 60 -22 0 -30 5 -30 18 -1 21 -26 53 -61 75 l-26 17 -6 243 c-9 390 -52 711 -126 952 -140 452 -425 824 -826 1076 -208 130 -425 212 -675 255 -104 18 -412 26 -536 14z m541 -63 c259 -49 480 -140 721 -299 138 -90 354 -304 464 -458 207 -291 310 -600 365 -1090 20 -177 32 -600 17 -600 -14 0 -15 4 -57 210 -66 328 -146 567 -281 840 -93 189 -142 271 -230 385 -259 335 -637 443 -981 280 -211 -99 -373 -239 -654 -563 -68 -79 -150 -174 -182 -210 -121 -138 -238 -298 -434 -592 -182 -273 -252 -397 -311 -555 -28 -74 -64 -245 -76 -367 -30 -277 -30 -442 -1 -693 7 -58 -81 291 -105 420 -12 61 -27 137 -35 170 -14 59 -46 310 -64 490 l-8 90 -4 -80 c-3 -77 -3 -75 -9 40 l-6 120 -2 -113 c-5 -257 71 -733 182 -1138 72 -266 211 -580 290 -658 23 -23 78 -86 123 -141 162 -202 315 -338 531 -475 45 -28 82 -54 82 -55 0 -8 -205 59 -310 102 -175 71 -360 203 -526 375 -103 107 -134 133 -70 61 11 -13 16 -26 13 -30 -4 -3 -8 -4 -10 -2 -23 32 -57 68 -57 61 0 -16 53 -67 69 -67 9 0 41 -27 71 -60 l54 -60 -55 52 c-81 78 -84 64 -4 -18 137 -139 309 -264 458 -334 160 -74 269 -112 370 -129 54 -9 120 -25 145 -35 26 -10 98 -40 161 -65 203 -82 317 -92 496 -46 101 27 198 84 294 175 78 74 323 353 455 518 43 54 80 96 83 94 7 -8 -60 -185 -113 -297 -49 -101 -120 -234 -161 -296 -11 -17 -11 -21 1 -21 8 0 12 5 10 11 -2 6 6 22 17 36 14 16 19 19 15 8 -10 -32 0 -20 55 64 l53 82 24 -54 c61 -138 63 -282 8 -404 -14 -31 -23 -62 -20 -68 4 -6 2 -8 -4 -4 -6 3 -21 -11 -33 -31 -26 -42 -35 -73 -16 -54 7 7 12 17 12 24 0 7 7 12 15 12 8 0 14 8 14 18 -1 9 2 14 7 12 9 -6 89 123 89 143 0 10 5 10 23 1 41 -21 77 -62 83 -95 14 -76 -69 -270 -177 -414 -66 -88 -250 -269 -363 -359 -221 -175 -456 -293 -681 -342 -221 -48 -582 -28 -772 43 l-53 19 0 518 c0 550 -2 577 -50 672 -31 60 -95 118 -169 153 l-66 31 -375 5 -374 5 -59 70 c-85 100 -109 138 -198 305 -138 261 -159 359 -158 735 l0 240 23 -70 c103 -314 263 -613 438 -815 96 -111 138 -157 138 -148 0 4 -6 13 -13 20 -63 66 -204 281 -310 473 -129 235 -278 657 -331 940 -50 267 -71 508 -63 725 12 300 60 514 211 928 35 97 81 227 101 287 142 427 479 837 882 1076 253 149 540 244 853 283 78 9 438 -2 515 -17z m472 -941 c241 -43 412 -134 580 -309 83 -87 103 -118 175 -280 82 -186 152 -416 173 -572 l7 -50 -29 29 c-47 48 -108 70 -193 70 -149 0 -409 -63 -462 -111 -33 -29 -62 -108 -59 -157 1 -22 14 -21 276 23 151 26 211 32 293 29 l104 -3 34 -39 c19 -22 34 -48 34 -59 0 -17 -5 -18 -47 -13 -27 3 -127 9 -223 12 -326 11 -489 -45 -559 -193 l-23 -49 -51 25 c-45 23 -65 26 -152 26 -55 0 -117 -4 -137 -9 -35 -8 -37 -7 -44 20 -23 90 -127 188 -249 233 -216 81 -677 102 -810 36 -48 -23 -136 -104 -146 -133 -3 -10 -34 -5 -124 18 -161 41 -185 49 -185 64 0 20 300 456 442 643 119 157 163 209 251 296 268 261 489 396 740 451 83 19 283 19 384 2z m-782 -1362 c187 -31 297 -78 382 -166 49 -50 69 -113 60 -189 -6 -53 -99 -297 -149 -390 -40 -76 -112 -145 -181 -173 -31 -13 -55 -25 -52 -28 3 -2 -10 -3 -28 -1 -21 3 -28 1 -19 -5 15 -10 -89 -23 -173 -21 -44 1 -46 2 -20 9 21 5 4 8 -57 9 -106 1 -181 20 -262 64 -98 54 -138 120 -188 310 -25 98 -31 311 -10 392 30 115 122 184 272 204 94 12 306 5 425 -15z m1705 -129 c102 -24 205 -77 230 -118 24 -39 26 -99 5 -199 -36 -173 -133 -400 -212 -496 -73 -90 -206 -122 -425 -103 -158 14 -218 32 -270 79 -68 61 -108 140 -139 272 -14 59 -16 252 -5 316 9 48 46 121 79 156 32 34 132 85 205 103 83 21 429 15 532 -10z m-2630 -47 c166 -71 160 -65 160 -147 0 -38 9 -120 20 -183 60 -350 172 -455 520 -488 242 -23 398 25 501 153 48 61 137 234 168 329 27 81 37 91 32 32 -2 -27 1 -44 8 -44 7 0 11 31 11 90 0 89 0 91 28 102 15 7 70 12 122 13 80 0 102 -4 138 -23 34 -18 42 -28 41 -50 0 -24 -1 -25 -10 -7 -6 13 -7 -39 -5 -145 4 -181 21 -266 77 -388 29 -66 31 -92 4 -56 -8 10 4 -21 27 -71 45 -97 58 -168 39 -213 -10 -24 -22 -31 -66 -41 -49 -11 -142 -71 -130 -83 10 -10 124 11 149 27 15 10 38 38 53 62 22 38 25 52 20 103 -3 33 -17 85 -32 117 -15 32 -29 75 -31 95 -2 21 -15 70 -29 110 -52 148 -67 212 -70 313 l-4 100 8 -95 c10 -117 30 -196 71 -282 76 -159 173 -214 422 -239 120 -12 234 -1 323 30 l56 20 -6 -57 c-24 -200 -122 -463 -273 -727 -150 -261 -248 -391 -530 -705 -171 -189 -273 -284 -349 -323 -191 -99 -394 -88 -636 34 -295 149 -557 349 -812 620 -201 214 -297 411 -357 739 -21 113 -23 155 -23 430 0 255 3 320 18 395 24 119 67 251 123 377 25 57 48 111 51 120 7 23 27 18 173 -44z m-1045 -2285 c28 -47 80 -128 117 -180 l67 -93 -184 0 -185 0 0 23 c1 39 38 195 56 229 24 47 66 108 73 108 4 0 29 -39 56 -87z m1015 -343 c81 -22 135 -72 183 -170 l32 -65 -4 -875 c-2 -481 -4 -876 -5 -877 -1 -1 -49 -9 -106 -18 -301 -46 -620 -114 -795 -167 -127 -39 -294 -119 -442 -214 -13 -8 -23 -10 -23 -5 0 5 9 13 20 16 11 4 18 11 15 16 -7 10 5 29 122 186 l84 112 182 109 c100 60 220 131 267 157 94 52 197 123 249 170 143 130 108 335 -58 335 -109 0 -774 -286 -958 -411 -46 -32 -211 -206 -231 -245 -7 -13 -17 -24 -21 -24 -5 0 -8 376 -6 843 2 806 3 845 22 903 27 83 76 154 135 194 41 28 61 35 121 39 147 12 1170 4 1217 -9z m-235 -1334 c41 -18 55 -42 55 -97 0 -84 -49 -147 -183 -238 -27 -18 -153 -91 -280 -162 -127 -71 -255 -148 -284 -170 -68 -51 -238 -277 -315 -418 -12 -22 -37 -41 -80 -61 -35 -17 -68 -30 -73 -30 -6 0 -16 -9 -23 -20 -10 -17 -10 -20 6 -20 10 0 22 4 28 9 5 4 32 14 59 21 83 22 223 87 350 164 66 39 134 78 150 85 103 46 281 95 495 136 74 14 228 46 342 71 317 69 339 68 367 -13 12 -34 13 -48 2 -82 -16 -54 -63 -107 -120 -135 -65 -33 -348 -127 -595 -197 -212 -61 -259 -80 -408 -167 -81 -48 -133 -76 -293 -162 -103 -56 -115 -63 -115 -73 0 -4 18 2 39 13 67 34 65 -20 -3 -71 l-41 -30 48 6 c38 6 47 4 47 -8 0 -48 100 -287 137 -329 15 -17 13 -18 -28 -20 l-44 -1 43 -4 c28 -3 42 -9 42 -19 0 -14 -52 -21 -128 -15 -58 4 -26 -17 47 -29 48 -9 147 -11 326 -8 178 3 293 1 369 -8 61 -7 146 -13 189 -14 70 0 81 -3 103 -26 20 -19 24 -31 20 -52 -18 -74 -88 -116 -227 -137 -186 -28 -235 -38 -314 -60 -44 -12 -134 -37 -200 -55 -66 -18 -127 -39 -136 -46 -8 -8 -21 -14 -27 -14 -6 0 -14 -5 -18 -12 -4 -7 -3 -8 4 -4 16 10 15 0 -3 -28 -11 -16 -22 -22 -35 -19 -10 3 -27 0 -37 -6 -14 -9 -12 -9 15 -5 17 4 32 4 32 1 0 -14 -89 -227 -137 -327 -53 -111 -59 -119 -180 -238 -137 -136 -145 -150 -194 -322 -35 -121 -52 -143 -129 -159 -128 -27 -233 -2 -372 92 -182 121 -299 274 -344 446 l-15 59 47 118 c83 212 184 486 198 538 95 338 134 510 196 856 22 124 44 249 50 278 11 58 56 141 124 224 23 29 113 148 200 263 87 116 177 229 200 253 61 65 151 121 356 221 186 92 604 265 653 270 4 1 23 -5 42 -13z m434 -1191 c0 -60 -3 -116 -7 -122 -4 -7 -41 -15 -82 -19 -41 -3 -140 -17 -220 -30 -80 -13 -197 -28 -260 -34 -110 -11 -171 -24 -325 -70 -149 -44 -285 -77 -285 -69 0 5 6 9 14 9 8 0 16 5 18 10 4 12 224 136 373 210 70 35 171 71 335 119 129 38 278 84 330 103 81 28 96 31 102 18 4 -8 7 -64 7 -125z m183 -166 c55 -29 55 -130 1 -181 -60 -55 -220 -116 -488 -184 -121 -30 -312 -86 -425 -124 -251 -84 -274 -89 -301 -64 -47 42 -89 170 -89 266 l0 55 103 30 c56 17 147 44 203 61 57 17 159 37 235 46 168 20 378 52 534 82 136 25 197 29 227 13z m-1329 -298 c8 -91 39 -194 77 -255 17 -26 29 -50 27 -53 -3 -2 -17 -5 -33 -6 -27 -2 -32 4 -80 100 -42 85 -93 247 -82 259 3 2 67 21 79 23 3 1 9 -30 12 -68z m1647 -142 c85 -379 160 -860 209 -1339 43 -423 115 -1380 141 -1875 6 -110 17 -290 25 -400 17 -228 45 -701 45 -757 l0 -38 -119 0 c-65 0 -146 3 -180 6 -56 6 -65 10 -89 42 -26 34 -27 41 -25 136 2 56 -1 117 -5 136 -7 28 -10 9 -19 -95 -11 -120 -10 -133 8 -174 22 -51 24 -71 7 -70 -7 0 -108 8 -225 18 -229 19 -247 24 -283 84 -11 18 -20 28 -20 22 0 -5 9 -25 20 -43 11 -18 20 -35 20 -37 0 -3 -81 -5 -179 -5 -129 0 -182 3 -187 12 -4 7 -7 30 -5 53 3 54 66 560 96 770 14 94 38 276 55 405 39 299 73 551 111 810 17 113 41 282 55 375 29 197 79 508 99 610 7 39 23 120 35 180 12 61 39 182 61 270 40 158 76 287 174 615 46 155 137 431 140 428 3 -2 18 -65 35 -139z m-544 -104 c-35 -58 -98 -111 -159 -131 -51 -17 -131 -14 -373 15 -39 5 -163 5 -275 1 -256 -9 -261 -7 -109 35 52 15 184 56 293 92 109 36 248 78 310 93 62 15 162 41 222 57 l110 29 3 -74 c2 -64 0 -79 -22 -117z m-2437 -827 c-62 -67 -74 -103 -74 -218 0 -127 25 -204 107 -338 128 -209 339 -357 553 -388 l90 -13 92 45 c149 72 199 145 190 274 -5 74 -4 74 10 40 23 -52 12 -158 -42 -424 -25 -126 -48 -234 -52 -239 -3 -5 -7 -30 -9 -56 -2 -38 -1 -43 9 -26 6 11 14 36 17 55 11 62 23 -207 18 -417 -8 -295 -38 -436 -177 -833 -80 -227 -141 -362 -205 -455 -69 -101 -328 -388 -398 -441 -306 -236 -524 -262 -782 -94 -126 82 -304 278 -401 440 -35 59 -53 87 -92 146 -7 11 -5 -1 4 -26 9 -25 21 -48 27 -52 6 -4 8 -8 3 -8 -4 0 0 -17 9 -38 9 -20 18 -44 22 -52 6 -16 -139 134 -227 235 -98 111 -141 232 -161 442 -14 152 0 322 35 424 14 44 21 78 16 87 -6 11 -10 7 -15 -14 -4 -16 -12 -31 -17 -34 -4 -3 -10 -17 -11 -30 -4 -30 -32 -65 -46 -56 -17 10 -89 169 -102 225 -22 94 -7 211 60 484 33 136 67 280 76 320 22 106 54 326 54 375 0 24 5 42 11 42 7 0 71 -15 143 -34 252 -67 492 -125 575 -141 47 -8 87 -17 89 -20 3 -3 -9 -25 -27 -50 -50 -70 -125 -238 -165 -368 -19 -65 -42 -128 -51 -140 -8 -12 -15 -27 -15 -34 0 -17 -79 -128 -134 -188 -151 -163 -254 -356 -296 -553 -20 -93 -24 -146 -20 -257 l2 -70 14 105 c39 306 116 482 309 705 33 39 76 90 95 114 44 55 76 91 82 91 3 0 8 -39 12 -87 3 -49 22 -166 41 -261 19 -95 35 -175 35 -178 0 -3 4 -3 9 0 5 3 3 23 -5 43 -7 21 -13 52 -14 68 0 17 -7 57 -15 90 -8 33 -14 69 -14 80 1 19 9 -10 42 -160 9 -38 23 -88 31 -110 9 -22 14 -29 11 -15 -3 14 -19 84 -35 155 -93 416 -58 703 115 933 44 58 179 177 235 207 l25 13 -3 -61 c-3 -52 8 -143 24 -199 7 -22 24 -24 24 -2 0 8 -5 12 -11 8 -8 -4 -9 3 -4 25 4 17 2 31 -3 31 -5 0 -8 44 -7 98 1 86 5 106 34 172 98 223 180 425 187 452 12 57 44 122 77 156 17 17 34 32 38 32 5 0 -6 -15 -22 -32z"/>
<path d="M3326 12905 c-20 -229 9 -651 63 -910 20 -98 27 -89 11 14 -17 104 -4 80 19 -36 32 -156 32 -156 36 -151 2 2 -5 48 -16 103 -64 333 -83 514 -83 825 -1 140 -4 237 -7 215 l-5 -40 -5 40 c-3 29 -7 12 -13 -60z"/>
<path d="M4790 12727 c-98 -30 -140 -53 -230 -123 -93 -73 -140 -125 -154 -171 l-7 -22 58 26 c161 72 354 111 482 98 145 -14 271 -37 376 -66 148 -41 293 -88 327 -105 24 -13 28 -13 28 0 0 8 4 17 9 20 5 4 7 -3 4 -14 -7 -28 6 -25 16 4 14 34 -5 103 -39 147 -53 67 -271 164 -461 205 -41 9 -132 18 -204 20 -115 4 -138 2 -205 -19z"/>
<path d="M4894 12291 c-65 -18 -162 -57 -174 -70 -12 -14 -77 -58 -94 -64 -10 -4 -16 -10 -13 -13 3 -4 57 19 119 50 138 68 234 91 351 81 134 -11 200 -41 310 -144 59 -55 61 -40 3 31 -85 104 -159 137 -326 144 -82 3 -120 0 -176 -15z"/>
<path d="M4950 12220 c-56 -8 -229 -60 -287 -86 -17 -8 -44 -14 -60 -14 l-28 -1 24 -19 c13 -11 32 -20 42 -20 10 0 53 -14 96 -31 87 -34 268 -79 324 -79 61 0 137 65 141 123 1 15 5 27 8 27 3 0 34 -19 70 -43 74 -48 83 -71 30 -74 -63 -3 -174 -23 -185 -34 -7 -7 2 -8 30 -2 52 10 172 10 208 -1 18 -5 27 -5 27 3 0 6 -6 11 -14 11 -8 0 -17 4 -20 9 -9 14 32 1 45 -15 23 -28 29 -13 10 24 -35 68 -100 141 -152 171 -73 41 -213 65 -309 51z"/>
<path d="M6941 12206 c4 -4 1 -37 -6 -74 -7 -37 -18 -118 -25 -181 -10 -98 -10 -126 5 -207 11 -64 16 -131 13 -213 -2 -98 -1 -117 10 -108 31 25 42 67 42 162 0 87 3 101 30 156 36 71 82 206 105 307 20 85 18 88 -59 126 -50 25 -128 46 -115 32z m109 -42 c45 -18 47 -24 29 -120 -20 -112 -92 -304 -113 -304 -18 0 3 296 29 418 6 26 4 26 55 6z"/>
<path d="M6400 12149 c-46 -9 -123 -56 -187 -115 -47 -44 -36 -43 25 0 26 19 72 47 102 63 50 26 64 28 165 28 145 0 190 -19 281 -119 66 -73 72 -76 52 -29 -59 136 -245 210 -438 172z"/>
<path d="M6373 12065 c-72 -16 -85 -22 -144 -70 -74 -60 -99 -87 -99 -108 0 -14 3 -17 13 -9 19 16 102 25 124 13 11 -5 31 -12 44 -14 13 -3 43 -10 66 -16 41 -11 265 -17 281 -7 5 3 45 10 90 15 45 6 92 16 103 22 20 10 19 12 -20 29 -24 12 -39 24 -36 32 12 33 -222 129 -311 127 -27 0 -77 -7 -111 -14z"/>
<path d="M4837 10803 c-15 -14 -6 -50 21 -80 15 -17 74 -68 132 -114 112 -88 303 -188 432 -228 203 -61 462 -50 543 25 12 11 36 26 53 33 17 7 51 34 75 60 24 25 59 58 78 73 97 76 146 137 121 152 -6 3 -37 -8 -71 -26 -52 -27 -74 -32 -146 -35 -47 -1 -133 -14 -191 -28 -118 -28 -183 -27 -309 5 -38 10 -95 23 -125 29 -30 6 -102 22 -160 36 -58 14 -140 32 -182 40 -43 8 -110 26 -149 40 -70 25 -110 31 -122 18z m296 -123 l24 -41 13 31 c14 33 18 34 72 20 23 -7 44 -22 57 -43 21 -31 21 -32 27 -9 7 25 5 25 95 1 23 -6 39 -16 42 -29 6 -24 37 -27 37 -4 0 10 6 14 18 10 9 -2 37 -8 62 -11 55 -9 80 -21 80 -40 0 -26 20 -26 51 -1 24 21 41 26 84 26 49 0 53 -2 60 -27 l8 -28 8 31 c7 24 16 33 40 38 49 9 59 7 59 -11 1 -14 5 -12 23 9 27 34 69 41 75 14 6 -28 -19 -136 -35 -152 -8 -8 -24 -14 -36 -14 -11 0 -31 -10 -44 -22 -15 -14 -34 -21 -53 -20 -17 1 -42 -6 -57 -15 -47 -31 -254 -21 -358 16 -16 6 -51 13 -77 16 -26 3 -63 17 -83 31 -20 13 -48 24 -64 24 -17 0 -43 13 -67 34 -21 18 -55 41 -74 51 -68 34 -82 63 -64 133 11 38 49 29 77 -18z"/>
<path d="M3125 9441 c-92 -17 -163 -73 -204 -160 -26 -55 -26 -60 -29 -314 -4 -281 2 -323 53 -402 61 -93 150 -125 345 -125 253 0 355 44 412 180 22 53 23 65 23 335 0 264 -1 283 -21 326 -27 58 -75 104 -140 135 -46 22 -67 24 -225 28 -96 3 -192 2 -214 -3z m413 -60 c28 -13 66 -40 83 -59 61 -70 63 -82 63 -362 0 -163 -5 -270 -12 -296 -17 -57 -73 -118 -139 -151 -56 -27 -60 -27 -242 -28 -204 0 -239 7 -296 56 -18 16 -43 53 -56 81 -23 52 -24 60 -24 323 0 261 1 272 23 321 13 28 38 66 56 83 57 55 89 61 301 58 174 -2 194 -4 243 -26z"/>
<path d="M3075 9346 c-52 -23 -76 -59 -90 -133 -7 -39 -9 -69 -4 -71 5 -2 9 -10 9 -18 0 -47 98 -114 168 -114 45 0 105 33 138 75 28 37 41 104 30 149 -8 32 -60 93 -97 112 -35 17 -114 18 -154 0z"/>
<path d="M3450 9102 c-64 -31 -110 -98 -110 -159 0 -42 25 -97 54 -121 14 -11 23 -21 21 -24 -2 -2 4 -4 13 -5 9 -1 40 -5 67 -8 103 -13 175 52 175 158 0 59 -23 104 -72 140 -28 21 -120 33 -148 19z"/>
<path d="M3063 8881 c-25 -12 -52 -35 -66 -58 -25 -37 -54 -149 -43 -160 3 -4 6 2 6 13 1 13 6 8 15 -15 8 -18 13 -37 10 -41 -4 -7 24 -37 31 -33 2 1 21 -5 41 -15 134 -59 277 41 258 180 -16 115 -141 179 -252 129z"/>
<path d="M2846 9407 c-26 -45 -46 -116 -38 -135 4 -11 11 5 18 43 l12 60 -6 -60 c-4 -33 -6 -90 -4 -127 2 -43 -1 -68 -8 -68 -6 0 -10 27 -10 65 0 36 -4 65 -8 65 -14 0 -16 -1567 -2 -1575 9 -5 10 -1 6 16 -6 22 -6 22 5 5 10 -16 9 -21 -5 -31 -9 -7 -16 -21 -16 -31 1 -13 8 -7 25 20 l24 40 2 780 c3 919 2 911 18 930 7 9 11 20 9 25 -1 6 -11 -4 -22 -22z"/>
<path d="M3480 7560 c-19 -11 -50 -26 -68 -35 -23 -11 -32 -21 -28 -31 3 -9 2 -12 -5 -9 -11 8 -39 -12 -39 -27 0 -6 8 -4 18 3 15 13 16 12 4 -3 -8 -9 -20 -14 -28 -11 -8 3 -17 -3 -21 -13 -3 -11 -12 -26 -20 -34 -42 -48 -61 -78 -60 -96 1 -12 -4 -19 -16 -19 -12 0 -29 -17 -44 -43 -19 -32 -21 -41 -9 -36 9 3 16 10 16 15 0 5 3 8 8 7 16 -5 198 108 206 128 3 8 17 19 31 24 17 7 23 14 19 27 -5 14 -4 15 4 4 5 -7 15 -10 22 -6 9 6 10 9 0 15 -9 5 -9 9 -1 14 6 4 11 2 11 -3 0 -15 13 -14 36 5 10 8 13 13 7 9 -9 -4 -13 3 -13 22 0 34 -14 58 -28 49 -5 -3 -12 0 -15 8 -4 10 0 12 15 8 14 -3 19 -1 14 6 -4 7 -2 10 6 7 9 -4 14 2 14 15 0 11 0 20 -1 20 0 -1 -16 -10 -35 -20z"/>
<path d="M3805 6957 c-72 -24 -124 -53 -120 -65 3 -9 -1 -11 -14 -7 -10 3 -25 0 -32 -8 -8 -7 -42 -26 -76 -42 -34 -15 -60 -32 -57 -37 3 -5 0 -8 -7 -6 -8 1 -39 -12 -70 -30 -31 -17 -61 -32 -67 -32 -6 0 -14 -4 -17 -10 -3 -5 0 -8 7 -6 7 3 46 12 86 21 54 13 72 21 68 31 -4 9 2 14 15 14 12 0 23 8 26 19 6 25 42 39 73 30 l25 -7 -26 -1 c-24 -1 -74 -30 -54 -31 6 -1 -3 -7 -20 -15 -26 -13 -26 -14 -5 -9 14 3 70 20 124 37 99 31 99 32 61 39 -21 5 -40 6 -43 3 -3 -3 3 -5 13 -5 14 0 16 -3 7 -12 -8 -8 -15 -8 -25 0 -8 7 -17 9 -20 5 -4 -3 -7 -2 -7 4 0 18 28 35 49 28 14 -4 23 0 31 15 6 11 19 20 30 20 10 0 21 4 24 9 3 4 -6 6 -21 3 -19 -3 -24 -1 -18 7 4 7 19 11 34 9 17 -1 35 5 46 15 22 23 18 26 -20 14z"/>
<path d="M4813 5733 c-12 -2 -36 -18 -53 -36 -64 -65 -66 -168 -4 -228 30 -29 42 -34 84 -34 40 0 54 5 81 30 60 57 75 129 38 195 -30 53 -90 83 -146 73z m64 -24 c68 -26 94 -80 73 -155 -25 -88 -107 -112 -176 -52 -35 31 -36 33 -32 94 4 65 22 98 63 115 28 11 39 11 72 -2z"/>
<path d="M4732 4330 c-44 -27 -65 -80 -60 -147 5 -63 33 -98 90 -115 74 -22 145 36 163 132 7 44 -19 96 -65 128 -41 27 -85 28 -128 2z m144 -31 c44 -41 43 -129 -1 -173 -13 -13 -22 -26 -20 -28 10 -10 -92 -1 -111 10 -12 6 -25 8 -29 4 -3 -4 -5 0 -3 8 2 8 -2 14 -9 13 -8 -2 -10 4 -6 14 4 9 2 14 -3 10 -18 -11 2 122 21 143 39 43 115 42 161 -1z"/>
<path d="M4674 2892 c-49 -39 -71 -146 -40 -200 19 -35 67 -62 110 -62 30 0 45 7 71 33 70 70 69 175 -4 224 -41 28 -106 30 -137 5z m116 -7 c41 -21 60 -53 60 -103 0 -82 -48 -129 -124 -120 -19 2 -32 0 -30 -4 7 -12 72 -10 97 3 21 10 21 10 3 -5 -11 -9 -36 -16 -55 -16 -37 1 -76 22 -64 34 4 4 0 4 -9 1 -9 -4 -18 0 -22 10 -3 9 -2 13 4 10 6 -3 7 1 4 9 -3 9 -9 14 -13 12 -8 -6 4 112 14 137 9 22 52 46 83 47 13 0 36 -7 52 -15z"/>
<path d="M3753 6307 c-43 -14 -63 -26 -67 -40 -4 -17 -11 -19 -48 -13 -29 4 -62 0 -103 -13 l-60 -19 135 0 c74 0 164 4 200 8 l65 7 -50 2 -50 2 30 14 c17 7 24 14 18 14 -18 1 -16 21 2 21 8 0 15 5 15 10 0 6 -5 10 -11 10 -5 0 -7 5 -4 10 8 13 4 12 -72 -13z"/>
<path d="M2429 4345 c-91 -68 -88 -185 5 -229 70 -33 152 9 176 91 16 53 7 88 -35 130 -42 42 -94 45 -146 8z m111 0 c59 -30 75 -89 45 -161 -30 -72 -154 -84 -184 -18 -28 62 1 152 59 181 32 16 45 16 80 -2z"/>
<path d="M2582 3819 c-104 -244 -219 -574 -151 -434 20 41 20 38 -2 -35 -10 -34 -14 -39 -20 -24 -5 13 -8 14 -8 4 0 -8 3 -21 8 -28 6 -10 11 -7 19 15 5 15 32 91 60 169 27 77 55 151 61 163 15 26 42 114 37 118 -2 2 -13 -24 -25 -58 -13 -33 -25 -59 -27 -56 -6 5 64 189 77 202 13 13 11 3 -6 -39 -8 -20 -13 -36 -10 -36 12 0 34 72 26 91 -6 18 -13 9 -39 -52z"/>
</g>
</svg>
